<?xml version="1.0" ?>
<!DOCTYPE svg PUBLIC '-//W3C//DTD SVG 1.1//EN' 'http://www.w3.org/Graphics/SVG/1.1/DTD/svg11.dtd'><svg
     fill="#FB4341" enable-background="new 0 0 512 512" height="512px" version="1.1" viewBox="0 0 512 512" width="512px"
    xml:space="preserve" xmlns="http://www.w3.org/2000/svg" xmlns:xlink="http://www.w3.org/1999/xlink">
    <g id="Layer_18">
        <g>
            <path
                d="M429.119,28.862c-12.913-9.79-27.729-15.915-43.685-18.703c1.934,1.242,3.837,2.555,5.698,3.949    c53.412,40.52,47.378,138.389-13.462,218.635c-58.766,77.493-147.142,110.199-201.232,75.9l-10.993-8.333    c0,0-63.481,63.689-78.791,83.879c-15.305,20.178-40.377,73.284-40.377,73.284s-14.567,28.666,3.048,42.037    c17.624,13.348,41.303-8.406,41.303-8.406s48.955-44.55,59.66-58.663c8.502-11.209,40.939-66.586,54.004-89.031    c60.388,35.836,154.49,2.592,215.912-78.41C484.791,179.809,488.78,74.083,429.119,28.862z" />
            <path
                d="M357.879,53.468l38.098,28.878c6.654,5.057,16.149,3.745,21.197-2.921c5.056-6.645,3.754-16.149-2.921-21.186    l-38.099-28.888c-6.654-5.058-16.139-3.745-21.186,2.92C349.922,38.916,351.224,48.42,357.879,53.468z" />
            <path
                d="M302.07,56.357l24.365,19.486c4.264,3.388,11.387,1.577,15.915-4.08c4.518-5.679,4.742-13.025,0.489-16.444    l-24.382-19.466c-4.263-3.409-11.396-1.577-15.915,4.081C298.016,45.611,297.791,52.958,302.07,56.357z" />
            <path
                d="M267.875,85.948l24.387,19.476c4.258,3.398,11.391,1.567,15.92-4.091c4.518-5.678,4.73-13.024,0.468-16.444    l-24.371-19.477c-4.279-3.398-11.397-1.566-15.92,4.111C263.84,75.182,263.616,82.529,267.875,85.948z" />
            <path
                d="M233.018,131.525l24.381,19.466c4.253,3.399,11.382,1.587,15.904-4.071c4.522-5.688,4.747-13.045,0.489-16.444    l-24.387-19.466c-4.259-3.409-11.382-1.577-15.916,4.091C228.973,120.769,228.753,128.116,233.018,131.525z" />
            <path
                d="M205.604,173.418l24.386,19.477c4.258,3.409,11.387,1.587,15.91-4.071c4.522-5.677,4.747-13.025,0.479-16.443    l-24.376-19.456c-4.264-3.409-11.392-1.587-15.915,4.09C201.565,162.683,201.34,170.03,205.604,173.418z" />
            <path
                d="M182.165,220.389l24.381,19.477c4.254,3.399,11.382,1.587,15.915-4.09c4.523-5.658,4.731-13.025,0.473-16.444    l-24.386-19.457c-4.258-3.409-11.382-1.587-15.909,4.102C178.115,209.634,177.901,216.98,182.165,220.389z" />
            <path
                d="M203.376,257.246c-6.66-5.068-16.148-3.746-21.207,2.91c-5.047,6.654-3.734,16.159,2.916,21.207l38.098,28.878    c6.654,5.037,16.154,3.744,21.202-2.911c5.047-6.664,3.749-16.158-2.921-21.205L203.376,257.246z" />
            <path
                d="M414.272,103.796l-38.098-28.858c-6.655-5.058-16.148-3.745-21.196,2.91c-5.057,6.645-3.755,16.14,2.9,21.207    l38.098,28.878c6.665,5.037,16.159,3.744,21.197-2.931C422.229,118.357,420.928,108.863,414.272,103.796z" />
            <path
                d="M337.629,119.751c-5.067,6.665-3.765,16.139,2.891,21.207l38.107,28.878c6.645,5.047,16.149,3.744,21.197-2.92    c5.046-6.645,3.744-16.139-2.911-21.206l-38.098-28.879C352.16,111.794,342.666,113.097,337.629,119.751z" />
            <path
                d="M376.999,207.547c5.037-6.655,3.735-16.149-2.92-21.207l-38.098-28.878c-6.655-5.047-16.14-3.745-21.197,2.91    c-5.046,6.675-3.733,16.159,2.921,21.206l38.098,28.88C362.458,215.526,371.942,214.192,376.999,207.547z" />
            <path
                d="M349.515,251.323c5.048-6.675,3.745-16.159-2.91-21.206l-38.098-28.879c-6.66-5.048-16.159-3.745-21.207,2.89    c-5.047,6.685-3.739,16.179,2.926,21.227l38.083,28.868C334.974,259.291,344.468,257.979,349.515,251.323z" />
            <path
                d="M301.394,286.959c5.048-6.654,3.745-16.149-2.921-21.205l-38.092-28.88c-6.655-5.047-16.145-3.754-21.207,2.931    c-5.037,6.645-3.74,16.139,2.926,21.186l38.083,28.879C286.853,294.927,296.342,293.614,301.394,286.959z" />
        </g>
    </g>
</svg>