<svg xmlns="http://www.w3.org/2000/svg" xmlns:xlink="http://www.w3.org/1999/xlink" width="671.093" height="844.813" viewBox="0 0 671.093 844.813"><defs><style>.a{fill:none;}.b{clip-path:url(#a);}.c{fill:#050401;}.d{clip-path:url(#b);}.e{fill:#dc2603;}</style><clipPath id="a"><rect class="a" width="671.093" height="844.796" transform="translate(0 -0.003)"/></clipPath><clipPath id="b"><rect class="a" width="643.999" height="267" transform="translate(26.017 577.81)"/></clipPath></defs><g transform="translate(0 0.003)"><g class="b"><path class="c" d="M583.853,242.058c-4.693.515-8.137,3.492-11.411,6.609-.174.166-.13.559-.187.846a3.575,3.575,0,0,0,2.238-.142c3.977-.9,5.707-.471,6.921,1.772a56.1,56.1,0,0,1,2.714,5.675,104.875,104.875,0,0,0,7.2,14.965c1.861,3.09,3.706,6.15,3.218,10.051-.971,7.746-1.083,15.551-1.339,23.342a40.329,40.329,0,0,1-.774,6.223c-.719,3.788-1.539,7.558-2.317,11.337a10.193,10.193,0,0,0,3.5-5.867c1.818-6.552,1.616-13.341,2.273-20.027.635-6.462.633-13,2.589-19.289,1.14-3.661.5-6.781-2.742-9.157a19.392,19.392,0,0,1-7.673-21.164c.78-3.124-.248-5.049-2.95-5.212a7.366,7.366,0,0,0-1.26.038"/><path class="c" d="M560.86,366.682c3.055,1.623,11.2,1.651,13.976-.141a65.042,65.042,0,0,1-13.976.141"/><path class="c" d="M359.635,77.936c-1.718-3.423-4.832-5.487-7.623-7.86a21.5,21.5,0,0,0,7.623,7.86"/><path class="c" d="M669.612,611.077c-6.31-4.055-12.285-8.672-19.143-11.881-3.053-1.442-5.677-3.817-8.779-5.093-5.2-2.123-9.864-5.153-14.742-7.812-2.91-1.574-5.868-3.638-9.411-3.471-4,.191-7.646-.417-10.77-3.089a2.286,2.286,0,0,0-.811-.406,11.011,11.011,0,0,1-5.856-4.747,30.673,30.673,0,0,0-6.107-6.31,19.4,19.4,0,0,1-3.912-3.4,22.545,22.545,0,0,0-8.54-6.882A35.1,35.1,0,0,1,569.2,547.919c-3.96-5.224-9.423-7.562-15.35-9.315a4.1,4.1,0,0,0-3.089.143,1.383,1.383,0,0,0-.25.131,11.989,11.989,0,0,0-1.634-2.1c.346,1.181.382,2.135.978,2.815a.623.623,0,0,0-.06.155c-.25,1,.37,1.729.835,2.493,1.1,1.813,2.4,3.471,3.59,5.212a9.818,9.818,0,0,1,1.574,8.576,29.913,29.913,0,0,1-3.459,8.075c-5.677,8.981-13.347,16.3-20.3,24.212a169,169,0,0,1-15.624,15.029c-9.054,7.956-18.011,16.006-27.184,23.807-7.121,6.047-14.253,12.059-22.208,17.056-7.789,4.878-15.364,10.1-23.725,14.027-7.383,3.471-14.826,6.655-23,7.944a103.666,103.666,0,0,0-12.057,2.982c-14.384,4.127-28.937,6.954-44.025,6.453-7.693-.262-15.291-1.3-22.924-2.087-7.311-.751-14.325-2.851-21.445-4.413a111.628,111.628,0,0,1-26.431-9.184,21.1,21.1,0,0,1-11.176-13.251c-.644-1.61-1.372-3.161-1.873-4.843-.06-.346-.119-.68-.179-1.026a19.432,19.432,0,0,1,1.312-10.77c.871-2.1,2.04-4.091,2.529-6.357.143-.68.262-1.5.918-1.634.835-.167.978.811,1.252,1.36a50.264,50.264,0,0,0,11.164,14.539,48.622,48.622,0,0,1,6.655,7.18,13.665,13.665,0,0,0,3.149,2.863c1.586,1.193,2.135.93,2.111-1.276a51.682,51.682,0,0,0,11.259,12.094c1.181-2.982,1.753-6.333.453-9.542-2.35-5.761-3.721-11.856-6.19-17.557a8.028,8.028,0,0,1-.883-3.447,12.681,12.681,0,0,0-1.621-6.465c-3.293-6.047-4.212-12.667-4.1-19.334a16.433,16.433,0,0,0-1.741-8.325,6.016,6.016,0,0,1-.668-3.495c.1-.823.441-.99,1.2-.787,1.658.453,2.23-.155,1.765-1.885a9.32,9.32,0,0,0-4.914-5.809c-1-.549-2.123-.942-2.719-1.944-1.992-3.316-3.578-6.739-3.053-10.818.537-4.186,2.183-5.463,6.3-4.544a22.343,22.343,0,0,1,2.123.716c2.1.68,4.115.918,5.856-1.169a9.587,9.587,0,0,1,1.121,4.461,3.77,3.77,0,0,0,1.229,2.8c.429.429.859.93,1.539.763.978-.239.31-1,.382-1.5.107-.668-.024-1.36.036-2.04.072-.608-.358-1.5.573-1.718.668-.143,1.2.358,1.718.859,2.087,2.075,7.013,2.9,9.7,1.741.489-.215.99-.286.811-1.05-.31-1.336.692-2.016,1.539-2.719,1.861-1.574,3.937-1.467,6.3-1.324,5.4.322,10.854.107,16.281.1.453,0,.93.036,1.193-.608a8.6,8.6,0,0,0-3.28-1.169c-3.065-.406-5.856-1.252-7.526-4.151-.274-.489-1.145-.74-.787-1.443.274-.537.954-.227,1.455-.31,2.864-.477,6.262.5,7.991-3.018.131-.274.62-.417.978-.525a38.448,38.448,0,0,0,6.62-3.292,10.521,10.521,0,0,1,5.379-1.348,19.421,19.421,0,0,0,10.6-3.161c3.162-1.98,6.18-4.1,9.816-5.32a108.57,108.57,0,0,0,16.1-7.335c3.1-1.646,5.952-3.793,9.1-5.331,5.236-2.552,10.293-5.463,15.506-8.051,4.188-2.087,7.574-5.344,11.714-7.407a22.392,22.392,0,0,0,7.239-5.248,10.483,10.483,0,0,1,1.873-1.6c4.067-2.9,8.446-5.379,12.273-8.623,1.372-1.169,2.47-3.161,4.175-3.3,2.552-.215,3.709-1.729,5-3.435,2.208-2.934,4.139-6.131,7.061-8.433,3.364-2.636,6.6-5.475,10.007-7.956,6.715-4.866,11.1-11.653,16.4-17.7,1.312-1.5,2.314-3.22,4.008-4.461a12.74,12.74,0,0,0,4.724-6.19,33.033,33.033,0,0,1,4.33-8.1c3.8-5.463,7.7-10.866,9.433-17.462a6.948,6.948,0,0,1,1.551-2.719,3.962,3.962,0,0,0,1.157-2.135c.024-2.35,1.133-4.27,2.123-6.25a23.5,23.5,0,0,0,2.326-8.373c.3-3.018,1.062-5.976,3.2-8.218a18.869,18.869,0,0,0,4.1-7.645c1.442-4.532,2.861-9.029.5-13.716a2.442,2.442,0,0,1,.2-2.278c1.036,1.5.607,3.352,1.98,4.831,3.841-8.337,1.919-16.519,1.06-25.226-1.3,2.123-1.312,4.031-1.825,5.773-.3,1.026-.227,2.946-1.348,2.731-1.384-.286-.429-1.873-.25-2.922.049-.3,0-.608.06-.906.692-3.173.621-6.787,3.554-8.91,2.052-1.491,2.755-3.435,3.22-5.654a30.409,30.409,0,0,0,.716-3.96c.262-3.638,1.026-7.264.429-11.546-.346,1.4-.537,2.183-.728,2.982-.883,3.542-1.193,7.216-2.648,10.627-.179.429-.25.99-.786.918-.5-.06-.6-.608-.586-1.085V332.97h-.644c-1.12,4.043-2.636,7.979-2.588,12.333.036,3.59-1.038,7.073-1.682,10.591-.107.6-.179,1.336-.906,1.384-.93.06-.871-.835-1.1-1.443-.906-2.445.072-4.7.6-7.025a16.8,16.8,0,0,0-.31-9.446c-1.562,1.288-.5,3.268-1.765,4.473-1.252-6.1,2.183-11.927.561-17.927-.524,2.552.024,5.2-.786,7.717-.9,2.719-1.85,5.51-1.218,8.349a9.123,9.123,0,0,1-.859,6.5,10.691,10.691,0,0,0-1.121,4.759c-.1,3.817.74,7.538.586,11.379-.192,4.58-3.114,7.574-5.023,11.307-.728-.68-.262-1.789-1.109-1.861-.823-.072-.918.895-1.157,1.443a19.724,19.724,0,0,0-1.861,6.894c-.024.739-.024,1.479-.953,1.9-.991-1.729.035-3.471-.072-5.332-2.482,1.622-4.367,3.34-4.593,6.393a41.723,41.723,0,0,1-.942,5.952c-.143.608-.094,1.825-1.133,1.646-.786-.143-.416-1.145-.429-1.765a9.885,9.885,0,0,1,.2-2.457,2.719,2.719,0,0,0-.109-2.29c-2.04,2.922-2.159,6.262-2.886,9.446-.334,1.479-.143,3.34-2.028,4.246-.763-3.065.978-6.011.036-8.9a.574.574,0,0,0-.727.36.471.471,0,0,0-.024.1c-1.347,3.924-2.171,7.908-1.2,12.059A11.264,11.264,0,0,1,506.3,411.9c-.252-.417-.323-.477-.323-.537,0-3.888,1.729-7.956-1.324-11.534-.347-.417-.106-1.324-.2-1.98-.309-2.183-.3-4.437-1.347-7.013-1.3,5.081-2.385,9.637-3.638,14.158-1.015,3.638-1.574,7.443-4.449,10.365a12.045,12.045,0,0,0-3.28,9.47c.107,2.147-1.073,4.031-2.278,5.749-.441.632-1.109,1.551-2.029.883a1.985,1.985,0,0,1-.735-2.709l.02-.034a32.973,32.973,0,0,1,2.385-4.067,11.4,11.4,0,0,0,2.065-3.948c.178-.835.631-1.992-.347-2.409s-1.562.716-2.052,1.419c-.9,1.288-1.622,2.684-2.481,4-1.146,1.765-2.994,3.6-4.677,3.566-2.385-.048-2.48,1.336-3.2,2.624-.228.394-.012,1.157-.918,1.145-.192-.429-.429-.883-.6-1.372-.273-.775.444-2.207-.656-2.3-1.312-.119-1.025,1.563-1.539,2.4a2.14,2.14,0,0,0-.119.883A33.446,33.446,0,0,1,471.1,444c-.466.859-.692,2.529-2.207,1.956-1.61-.62-3.876-1.026-3.3-3.674.918-4.222,1.2-8.576,2.768-12.679a5.454,5.454,0,0,0-.513-5.188.736.736,0,0,0-.465.7,11.6,11.6,0,0,1-4.806,8.492,4.457,4.457,0,0,0-2,2.362c-.167.573-.3,1.36-.906,1.419-1.072.083-.716-1.121-1.3-1.825-.406,1.324-.753,2.529-1.146,3.721-.7,2.123-.715,2.123-2.087,3.113-.082-2.123,1.671-4.067.489-6.5-1.944,2.29-3.065,4.831-4.568,7.121-1.586,2.421-2.5,5.32-5.211,6.906-1.744,1.026-2.339.787-2.457-1.264-.085-1.431.035-2.874-.037-4.306-.06-1.2.5-3.113-.954-3.268-1.132-.131-1.372,1.825-1.789,3.006-.525,1.479-.166,3.268-1.491,4.532-1.3-4.008-1.968-7.872.155-11.748a10.026,10.026,0,0,0,.943-5.487,7.569,7.569,0,0,1,.9-4.127c2.516-4.6,1.668-9.53,1.789-14.647a1.933,1.933,0,0,0-.9,1.336c-1.17,4.95-1.456,10.043-2.3,15.04a7.64,7.64,0,0,1-2.552,4.914c1.193-5.117.036-9.959,1.419-14.957-2.552.835-2.743,3.28-4.352,4.294-.515-.573-.262-1.121-.359-1.61-.1-.465.274-1.3-.417-1.288-.739.012-1.849-.382-2.254.572-1.36,3.22-2.922,6.345-2.016,10.114.538,2.195,2.517,3.2,3.507,4.962-.739.417-1.157-.06-1.6-.274-.8-.358-1.573-1.539-2.3-1.026-.93.656.44,1.539.406,2.409,0,.107-.156.215-.3.429-.729-.5-1.491-.954-2.172-1.515-1.288-1.062-1.467-.346-1.455.823.013,1.24.013,2.493.013,3.733-1.027-5.427-1.349-11-4.891-15.708-.716.728-.37,1.181-.2,1.67q1.056,3.186,2.077,6.4c.321,1,.81,2.4-.24,2.827-.917.37-1.2-1.2-1.753-1.92-.966-1.24-1-3.173-2.97-3.984a10.8,10.8,0,0,0,1.145,4.854c.68,1.539,1.312,3.149.883,4.795-1.92,7.419-1.2,15.2-3.1,22.626-.144.572.345,1.5-.717,1.6-.883.083-1.085-.728-1.348-1.312a14.434,14.434,0,0,0-4.628-6.274,3.092,3.092,0,0,1-1.467-3.2c.334-4.139-.6-8.242-.452-12.381a1.726,1.726,0,0,0-.657-1.6,1.11,1.11,0,0,0-.2.346c-1.039,4.854-.275,9.757-.466,14.635-.024.692.525.978.966,1.4,2.159,2.063,3.018,4.771,3.483,7.61.143.847.192,2.469-.942,2.147-1.61-.477-1.419.561-1.718,1.252a5.966,5.966,0,0,1-1.336,2.326c-.465-.823-.835-1.479-1.157-2.063-.881.274-1.3,3.22-2.372.775-1.707-3.9-4.6-7.192-5.607-11.45a8.4,8.4,0,0,0-2.778-5.009c-.478-.37-1.193-1.014-1.814-.441-.561.513.143,1.1.37,1.586q2.684,5.689,5.451,11.355a9.57,9.57,0,0,1,1.085,5.212c-.191,1.849-2.362,5.069-3.637,5.045-1.945-.036-1.921-2.028-2.744-3.173-.286-.394-.322-1.169-.978-1.073a1.719,1.719,0,0,0-1.2,1.228c-.441,1.193-.9,2.385-1.407,3.542-.31.7-.787,1.443-1.658,1.264-.942-.179-.513-1.1-.573-1.706-.143-1.622.358-3.375-.978-4.866a2.842,2.842,0,0,0-.322.537,3,3,0,0,0-.06.668,10.693,10.693,0,0,1-4.067,8.409c-.859.751-1.932,1.455-3.006.847-2.994-1.694-3.948-1.718-6.524.584a3.123,3.123,0,0,1-2.982.835c-3.387-.477-6.739-1.3-10.246-1.157-5.451.227-6.071.537-8.111,5.582-.453,1.109-.966,2.326-2.529,2.135s-1.264-1.5-1.527-2.576c-.394-1.658-.178-3.745-2.445-4.544a21.387,21.387,0,0,0-.632,3.28c-.048,1.574-.692,2.815-2.218,2.863-1.932.06-1.586-1.8-1.861-3.018a6.388,6.388,0,0,1-.024-2.028,6.681,6.681,0,0,0-.488-2.409c-.12-.465-.347-.883-.884-.835-.5.048-.322.572-.465.883-.738,1.622-.167,3.435-.847,5.069-.19.477-.107,1.217-.7,1.264a1.45,1.45,0,0,1-1.419-1.229,14.707,14.707,0,0,1-.191-1.789c-.1-.775.406-2.028-.549-2.2s-1.634.954-2.051,1.813a10.8,10.8,0,0,0-.561,2.159c-.31,1.145-.608,2.3-.977,3.435a1.011,1.011,0,0,1-1.051.7c-.644-.024-.62-.525-.68-.966a18.316,18.316,0,0,1-.477-3.781c.072-1.1.346-2.779-.8-2.994-1.36-.262-1.6,1.419-1.98,2.541-.74,2.218-2.028,3.757-4.58,3.984a54.588,54.588,0,0,0-7.1.966c-1.337.3-1.373-.239-1.373-1.181,0-2.028.119-4.02-.823-5.964-.406-.859-.549-1.3-1.527-.835-.417.191-.906.692-1.407.143-.525-.572-.155-1.109.061-1.67q1.161-2.916,2.241-5.856c.155-.417.227-1.014-.179-1.252-.477-.286-.883.155-1.026.584-1.335,4.055-6.19,5.546-7.109,9.912a19.424,19.424,0,0,1,.167-5.88,13.753,13.753,0,0,0,.549-5.129c-.048-.441.024-.978-.477-1.169-.573-.2-.692.346-.954.692-.382.513-.739,1.324-1.561.978a2.027,2.027,0,0,1-1-1.682,7.676,7.676,0,0,1,.215-2.886c.346-1.384,1.05-2.8.227-4.687-.859,1.634-1.539,3.006-2.29,4.342-.537.966-1.181,2.552-2.23,2.135-1.324-.525-.358-2.052.036-2.934,1.766-3.912,1.956-8.075,2.266-12.261-2.266,5.212-6.262,9.315-8.707,14.42-.847-2.886.156-5.5.906-8.087.775-2.588,1.789-5.117,2.7-7.669-1.955,1.574-2.731,3.745-3.542,5.892-.465,1.252-.763,2.517-2.052,3.352-1.193.775-1.634.835-1.646-.775-.012-2.016.3-4.067-.429-6.035-.119-.334-.012-.835-.525-.835a.883.883,0,0,0-.775.716c-.167.5-.322,1-.5,1.491-.237.68-.346,1.789-1.252,1.551-.99-.274-2.23-.68-2.35-2.075a8.482,8.482,0,0,1,.2-2.445c.227-1.073,1.05-2.159.358-3.471-2.028.906-2.4,3.459-4.58,4.151.262-1.145,1.61-1.407,1.563-2.529-.847-.74-1.682.68-2.5-.036.179-.561,1.05-.692.883-1.443-.644-.394-1.515.143-2.218-.632,1.372-1.467,3.769-1.252,5.236-3.173-2.743.239-4.735-1.288-6.966-1.682-2.183-.382-1.765-.918-.942-2.385.895-1.6,2.3-3.125,2.016-5.427-1.562.644-2.672,1.753-4.246,1.968.513-3.041,4.21-3.5,5.021-6.775A15.4,15.4,0,0,1,262.83,434.4c-.417-.048-.99.155-1.169-.394-.167-.5.3-.811.62-1.1,1.407-1.24,3.208-1.98,4.377-3.507.382-.5,1.288-.823.883-1.634-.406-.835-1.336-.74-2.016-.513-1.646.549-3.065-.25-4.854-.31a14.837,14.837,0,0,1,5.153-2.91c.573-.227,1.24-.561,1.073-1.217-.1-.382-.787-.632-1.36-.62-1.05.012-2.111.024-3.161-.036-.978-.048-1.527-.394-.668-1.372,1.288-1.443,1.729-3.6,4.151-4.163-3.662-2.207-7.216-1.741-11.057-1.1.811-1.753,2.147-2.171,3.208-2.934.465-.334,1.372-.37,1.312-1.073-.083-.859-1.085-.668-1.658-.918-1.169-.513-2.541.107-3.745-.537-.513-.262-1.276-.191-1.372-.93-.1-.644.525-.8.954-1.1a6.983,6.983,0,0,0,2.23-1.837c.5-.859,2-1.479,1.407-2.576-.417-.751-1.6.167-2.469.036a5.783,5.783,0,0,0-1.741.334c-.74.119-1.312.06-1.443-.918-.7-5.188-1.586-10.389,1.157-15.3.692-1.217,1.145-2.779,3.077-2.994-.37,2.218-1.527,4.2-1.264,6.81,1.813-2.147,2.242-4.628,3.864-6.417,1.622-1.765,3.042-2.016,4.783-.453,5.2,4.664,10.687,8.981,15.517,14.062a24.1,24.1,0,0,0,9.435,5.928c5.713,2.075,11.738,2.9,17.617,4.234a8.042,8.042,0,0,0,5.75-.453c.4-.227,1.144-.31.965-1.026-.119-.453-.667-.5-1.073-.692-1.181-.6-3.7.346-3.018-2.541.06-.227-.537-.716-.906-.918a12.462,12.462,0,0,0-4.425-1.527c-4.662-.525-8.17-1.67-9.566-7.443-.6-2.5.394-4.234,2.994-4.294,2.636-.06,5.272-.048,7.92,0a24.569,24.569,0,0,0,8.325-1.515c-.656-.918-1.527-.751-2.326-.751-1.741-.012-3.483-.107-5.212.012-5.272.358-6.047-1.706-5.964-6.417.1-4.306,2.04-5.689,6.4-4.616a6.2,6.2,0,0,1,4.055,3.423c.68-3.769,3.019-6.071,6.262-6.441A66.756,66.756,0,0,1,326.2,373.3a5.9,5.9,0,0,0,3.483-.7c4.461-2.91,9.2-1.932,13.932-1.24,3.816.572,7.537,1.6,11.509.215a16.6,16.6,0,0,1,10.21.107,16.268,16.268,0,0,0,7.944.048c3.256-.608,6.81-.93,9.662.918,3.136,2.028,5.819,1.849,8.992.406,3.96-1.8,6.918.346,7.133,4.723.083,1.765-.716,3.363-.823,5.451a19.208,19.208,0,0,0,1.886-1.789,4.737,4.737,0,0,1,5.044-1.753c3.948.871,7.623-.346,11.152-1.586,4.043-1.431,7.24-4.377,7.932-8.743.729-4.592-1.24-8.635-4.3-12.094-.18-.2-.3-.728-.574-.537-2.338,1.622-5.343,1.2-7.847,2.529.607,1.05,1.681,1.1,2.539,1.264,1.3.274,2.421.68,2.53,2.1a3.2,3.2,0,0,1-2.22,3.34c-2.874,1.038-5.749,2.075-8.934,1.932a41.614,41.614,0,0,0-13.382,1.229,17.464,17.464,0,0,1-8.91.131,30.966,30.966,0,0,0-5.51-.906,196.039,196.039,0,0,0-23.234.572c-4.664.334-9.065-.572-13.573-.942-5.487-.453-11.069-1.944-16.436.024-4.532,1.658-9.089,1.765-13.74,1.658-1.646-.048-3.28-.382-4.926-.417-4.02-.119-7.073-1.718-8.79-5.487-2.5-5.5-2.731-5.284-8.779-4.043a8.672,8.672,0,0,0-1.085.3,1.866,1.866,0,0,1-2.452-.972,1.949,1.949,0,0,1-.089-.257c-1.4-3.578-1.6-7.288.477-10.568,2.97-4.687,7.765-7.371,12.357-10.186,1.252-.763,3.149-1.061,4.1-.31,1.67,1.312,2.97.525,4.294-.024a15.8,15.8,0,0,0,4.938-3.053,21.522,21.522,0,0,1,12.09-6.34,12.439,12.439,0,0,0,5.534-2.3c1.908-1.36,1.9-2.218-.119-3.483-2.6-1.61-4.914-3.471-5.987-6.441a5.677,5.677,0,0,0-5.63-3.769c-3.721-.06-6.512-1.67-9.339-3.769-2.338-1.729-4.365-3.912-7.133-5.033-1.157-.477-2.612-.942-3.185.382a4.409,4.409,0,0,1-2.5,2.374,37.4,37.4,0,0,0-11.021,7.657,2.453,2.453,0,0,1-2.839.656c-2.612-.966-3.554-2.063-3.268-5.093a22.644,22.644,0,0,1,4.27-11.4c2.4-3.292,5.691-5.713,8.051-9.077,3.59-5.093,5.546-11.1,9.768-15.851,3.053-3.447,4.64-7.991,7.253-11.832a5.7,5.7,0,0,0,1.037-5.355c-5.057,5.63-8,12.345-12.321,18.177-6.023,8.158-10.758,17.247-16.436,25.691a29.547,29.547,0,0,0-3.984,8.993,57.574,57.574,0,0,0-1.169,8.421c-.847,7.049.835,12.094,8.635,14.182.513.131.966.262,1.181.871.954,2.815-.8,6.8-3.387,8.361-4.592,2.791-9.065,5.773-13.585,8.671-.3.191-.429.644-.906.489-1.706-.549-1.682-.537-2.815.513-.883.823-1.586,1.968-3.2,2,.584-2.934,3.912-3.757,4.628-6.572-2.863,1.1-4.091,3.5-5.51,5.665-.656.99-1.157,1.5-2.493,1.133-1.694-.453-2.994.453-3.984,1.837-1.479,2.075-2.886,4.2-4.485,6.166a20.021,20.021,0,0,0-4.568,14.408,61.253,61.253,0,0,1-.3,10.747c-.2,1.825-1.05,3.793-.119,5.725a14.9,14.9,0,0,0,.942-2.493c.584-1.67.382-3.6,1.682-5.045.334-.382.453-1.038,1.109-.93.751.143.751.811.8,1.419.107,1.372-.274,2.8.394,4.354,1.551-1.861,2.612-3.888,4.783-5.045.441,1.515-.632,2.374-1.026,3.423-1.264,3.459-3.495,6.6-2.433,10.687.549,2.135-1.694,5.832-3.495,6.727.1-2.708,1.729-5.057,1.658-7.753a.723.723,0,0,0-.775.513c-.859,1.825-1.658,3.686-2.624,5.463-.262.477-.5,1.467-1.4,1.193a1.619,1.619,0,0,1-.942-1.634c-.036-.811.1-1.6-1.181-1.61-.489,0-.942-.668-1.109-1.312-.417-1.646-1.193-1.169-2.028-.31-.465.489-.99.93-1.431,1.443-.871,1.026-1.312.7-1.932-.334a26.1,26.1,0,0,1-3.161-7.61,3.318,3.318,0,0,0-.739-1.574c-1.026-1.181-1.05-2.219.37-3.352s3.113-2,4-3.781c-2.123,1.741-4.795,2.207-7.168,3.3-1.455.68-1.527,0-1.729-.847a5.415,5.415,0,0,0-1.813-3.292c-.3,1.252-.274,2.529-1.455,3.423A13,13,0,0,0,221,382.121a70.8,70.8,0,0,1-3.733-11.951c-1.1-5.487-2.254-10.949-2.9-16.519-.429-3.686-1.157-7.252-4.52-9.59a2.949,2.949,0,0,1-.93-1.24,41.482,41.482,0,0,1-3.59-14.492c-.239-5.415.823-10.758.93-16.173.107-5.689,2.541-9.912,7.967-12.381A85.2,85.2,0,0,1,242.79,292.7c7.144-.608,14.3-1.312,21.231-3.256,5.952-1.658,12.059-3.125,17.378-6.5,7.037-4.461,12.166-10.782,16.662-17.688,1.873-2.886,3.507-5.94,6.119-8.29a12.7,12.7,0,0,0,3.626-5.856c1.407-4.652,2.9-9.268,4.212-13.943a53.391,53.391,0,0,0,2.385-17.056c-.085-1.956-.049-3.924,0-5.892.082-3.757,1.871-6.166,5.271-7.2,3.268-1,6,.036,8.182,3.041a20.587,20.587,0,0,1,2.8,7.033c1.36,5.211,2.564,10.5,5.176,15.255,3.853,7.013,7.824,13.966,12.154,20.706.584.906,1,2.052,2.148,2.528,3.959,5.069,7.9,10.162,13.131,14.038,2.135,2.362,4.914,3.864,7.634,5.367,8.182,4.509,17.295,5.582,26.359,6.322a134.251,134.251,0,0,0,22.423-.573c.06,0,.12-.013.179-.013,3.161-.227,6.311-.536,9.411-.93.155-.011.31-.036.453-.047,6.166-.729,12.309-1.658,18.464-2.445,8.206-1.039,14.922-5.284,21.433-9.948A30.567,30.567,0,0,0,481.4,257.014c2.886-4.484,3.96-9.542,5.176-14.586a143.374,143.374,0,0,0,2.958-19.9c.776-.656.394-1.539.443-2.325a19,19,0,0,1,.262-2.112,8.731,8.731,0,0,1,.19-.906c.728-2.826,2.267-4.02,5.021-3.566,3.936.633,7.86.967,11.8,1.373,5.558.583,11.069,1.621,16.579,2.587,4.283.751,8.313,2.135,11.092,5.785a17.807,17.807,0,0,1,3.459,7.706c.107.56.191,1.347-.537,1.55-.549.156-.871-.464-1.181-.883-.382-.524-.322-1.407-1.323-1.562.345,1.241.6,2.4.977,3.52,1.682,5,3.09,10.006,2.612,15.4a15.854,15.854,0,0,0-.3,3.96c.741,4.951,1.753,9.876,1.646,14.946-.072,3.3-.775,6.56-.513,9.888a21.258,21.258,0,0,1-1.144,8.182c-.668,2.062-1.158,4.234-.276,6.38a82.308,82.308,0,0,1,4.127,13.919c.751,3.484,1.61,6.8.119,10.414-1.157,2.826-.143,3.935,2.087,7.18.143-.286.441-.6.382-.812-.835-3.352.227-6.5.835-9.721.406-2.159.99-4.412-.714-6.381a2.9,2.9,0,0,1-.441-1.718c-.478-3.841-.787-7.657-3.162-11.057-1.861-2.672-1.026-4.7,2.112-6.571a3.163,3.163,0,0,1-.025,2.195c-.322.834-.525,1.765.429,2.159a1.963,1.963,0,0,0,2.421-1.133,9.724,9.724,0,0,0,.537-1.7c.859-2.409.847-5.152,2.958-7.2,1.288,6.989-1.109,13.908-.751,21.041,3.483-6.812,4.831-14.063,6.357-21.266.37-1.729.358-3.591,1.384-5.13.31-.453.716-1.144,1.4-.917.632.2.334.906.382,1.4.394,3.638-.93,6.93-2.087,10.258a10.273,10.273,0,0,0-.215,6.489c.966-2.1,2.767-2.242,4.186-3.007,2.374-1.264,2.612-1.86,1.8-4.508-.453-1.492-1.121-2.9-1.467-4.461a34.426,34.426,0,0,1-.346-13.61c.572-3.328,1.515-6.536,4.115-9.028a6.23,6.23,0,0,0,2.2-5.2c-.2-2.278-1.229-4.27-2.028-6.321a1.088,1.088,0,0,1-.06-.155c-.227-.68-.477-1.419-.763-2.218a.608.608,0,0,1-.036-.083c-.406-1.324-.608-2.672.25-3.447a27.915,27.915,0,0,1,5.176-3.936c2.517-1.36,5.3-1.956,7.848-3.161,2.863-.7,4.52-2.1,4.234-5.522-.262-3.22-.012-6.477-.083-9.721a11.034,11.034,0,0,1,.537-3.542,91.343,91.343,0,0,0,4.485-33.1,137.694,137.694,0,0,0-2.171-19.036c-1.1-5.582-2.087-11.164-2.994-16.781.167-.347.346-.693.513-1.039,1.98-.906,2.35-2.421,1.968-4.461-.346-1.836-2.839-3.125-1.4-5.4.024-.036-.036-.143-.083-.192-2.266-1.98-2.9-5.045-3.268-7.526-.561-3.649-3.566-6.31-3.352-10.066-3.089-1.194-2.779-4.687-4.58-6.716-.417-.476-1.658.167-2.4-.464l-.012-.012c-1.586-.537-1.479-2.732-3.137-3.185-1.682-2.708-3.363-5.4-5.045-8.112.036-.143.06-.286.1-.428.346-1.491,1.4-2.755,1.217-4.413-.227-2.159-2.636-1.61-3.507-2.935a1.64,1.64,0,0,1-.31-.966,4.589,4.589,0,0,1,.31-1.372c.286-.894-.608-1.251-1.193-1.693-.322-.227-.716-.394-1.014-.048-.489.561.167.93.322,1.384-.155.13-.3.262-.441.406A1.772,1.772,0,0,1,555,88.173a4.435,4.435,0,0,0-.322-1.919c-.167-.728.823-1.407-.036-2.219a25.334,25.334,0,0,1-2.219-2.706,2.99,2.99,0,0,0,.072-.442v-.011c2.219-.823,2.457-2.815,2.385-4.687-.107-2.922-.334-5.917-2.9-8-.191-.823-.883-1.181-1.491-1.61-3.077-2.172-6.547-1.6-9.959-1.372-3.089.214-6.441,1.073-8.456-2.326-1.873-3.174-4.986-4.365-8.134-5.57a.038.038,0,0,0-.011.023l-.013-.011.024-.012a100.024,100.024,0,0,1-8.456-5.857c-1.455-1.12-2.719-3.208-5.141-2.742-.835-2.458-2.767-4.282-3.829-6.644-.417-.931.085-2.6-1.6-2.851-.156-.156-.311-.3-.454-.453v-.013c-2.563-1.5-4.984-3.375-8.218-3.185a.755.755,0,0,1-.584-.214c-1.323-2.028-2.433-4.234-4.854-5.249-.1-.047.012-.44-.1-.62-1.288-2.217-2.719-4.807-5.283-5.152-2.494-.335-4.856-1.276-7.372-1.361a.83.83,0,0,1-.883-.453c-1.348-.584-2.648-1.287-3.971-1.92-4.164-1.979-8.338-3.971-12.907-4.926-1.992-.4-4.246-.107-5.772-1.967a1.038,1.038,0,0,0-1.277-.12c-2.038,1.146-4.09.084-5.652-.667-2.016-1-4.259.118-6.06-1.229a.43.43,0,0,0-.428.047c-1.6,1.527-3.162.466-4.522-.273a15.971,15.971,0,0,0-6.667-2.135c-1.264-.1-2.5-.394-3.756-.584-.168-.812-.287-1.622-.514-2.409-.179-.632-.823-1.252-1.312-.859-1.6,1.3-3.315.417-4.938.62-3.817.489-6.894-.919-9.876-2.828A21.138,21.138,0,0,0,403.531.3h-.025V.265A4.749,4.749,0,0,0,403.062,0H360.1a8.307,8.307,0,0,1-4.8.587,20.018,20.018,0,0,0-4.687-.346H350.6A3.7,3.7,0,0,0,350.03,0H326.861L323.829,2.97c-2.517.763-5.033,1.573-7.741,1.383-.9,0-1.789-.036-2.672.013-.131.011-.262.011-.394.011h-.179c-.429.024-.858.012-1.288,0h-.024c-2.552-.048-5.129-.31-7.574.848-1.753.071-3.185,1.371-4.974,1.347a26.708,26.708,0,0,0-6.858-.859c-5.547-.068-11-1.142-16.5-1.691-3.1-.322-6.214-1.348-9.232.3a5.139,5.139,0,0,0-2.708.895c-.012.012-.012.012-.024.012a16.657,16.657,0,0,0-5.379,1.622c-.012.012-.012.012-.024.012-.119.073-.25.131-.37.2-3.065.917-6.119,1.849-8.767,3.756,2.576-.167,4.95-1.419,7.55-1.311a44.91,44.91,0,0,1-8.934,2.969,21.484,21.484,0,0,0-9.423,4.5c-.942,1.05-2.445,1.432-3.161,2.731a8.075,8.075,0,0,0-2.827,2.278,2.618,2.618,0,0,0-1.682,1.264c-.8.787-1.61,1.563-2.409,2.35l-.012.012a5.509,5.509,0,0,0-3.018,3.018c-4.664,4.449-8.015,9.816-10.925,15.494a3.182,3.182,0,0,0-.608.656c-7.137,13.928-13.661,28-15.347,43.937a105.342,105.342,0,0,0,.7,24.846,37.507,37.507,0,0,0,4.819,14.622c1.98,3.268,2.791,7.073,4.139,10.628.036.285.06.572.084.846a13.29,13.29,0,0,1,.811,6.834c-.489,4.795-.7,9.59-.847,14.4v2.874a86.912,86.912,0,0,0,.906,12.07c-.107,4.926-.966,6.023-5.009,6.4-.477.119-.656.358-.656.656a1.553,1.553,0,0,0,.179.632c-.143.143-.274.286-.417.429-4.676,1.122-9.029,3.2-13.609,4.616a3.4,3.4,0,0,0-2.23.823c-.31.179-.62.358-.942.537a3.062,3.062,0,0,0-2.242.906,3.452,3.452,0,0,0-2.7,1.229,31.005,31.005,0,0,0-5.153,2.852,9.679,9.679,0,0,0-5.272,6.81c.131.6.262,1.193.394,1.8-.751,1.6-.25,3.317-.394,4.974a1.387,1.387,0,0,0,.033,1.961h0a1.36,1.36,0,0,0,.325.233c.285,1.515-.3,3.137.536,4.593v.024c-.024,2.5.143,4.937,2.207,6.763a7.64,7.64,0,0,1,.966,4.091c.239.607.477,1.216.716,1.836.06.143.107.286.167.429l.012.024a3.681,3.681,0,0,0,.417,2.219c-.143,1.239.787,2.325.513,3.59.072,1.229-.262,2.48.37,3.649a.5.5,0,0,1,.084.43c-.107,1.9-.394,3.8.906,5.463h-.012a13.525,13.525,0,0,0,1.324,7.263l.012.024a14.261,14.261,0,0,0,1.741,7.193.447.447,0,0,1,.107.416,35.664,35.664,0,0,0,3.59,11.82v.024c.346,2.075.93,4.031,2.66,5.427l.036.049a14.558,14.558,0,0,0,7.192,7.657l.06.048c1.586,2.445,4.318,2.73,6.751,3.566l.048.036a3.524,3.524,0,0,0,2.207.883l.1-.06c.561,1.085,2.147,1.574,1.813,3.149-1.133,5.284-1.777,10.627-2.457,15.971a4.456,4.456,0,0,0-.25,2.266q-.072,8.371-.143,16.722a2.582,2.582,0,0,0,.024,2.624c.191,5.689,1.729,11.164,2.731,16.722q1.86,10.143,3.733,20.288a3.636,3.636,0,0,0,.37,2.4c.429,3.936-2.123,7.872-.048,11.82-.74,2.1-.227,4.27-.334,6.4.417,2.362-.012,4.723-.012,7.085,0,.787,0,1.563-.012,2.35-.656,1.038.119,2.087,0,3.137a4.781,4.781,0,0,0,.382,2.707c1.4,1.92.656,4.353,1.515,6.345.668,1.527.68,3.137,1.109,4.652,1,3.447.441,7.073,1.539,10.5.93,2.91,2.934,5.463,3.041,8.6a3.827,3.827,0,0,0,2.23,3.375c.942.573,2.385.7,1.694,2.445-.107.274.382.7.787.561,1.837-.668,1.837,1.014,1.67,1.694-.489,1.968.274,3.662.608,5.475.382,1.992-.25,4.5,2.743,5.1.155.024.322.322.382.525.871,3.018,3.435,5.009,4.664,7.884a5.732,5.732,0,0,0,5.009,3.793c.859.036,1.288.835,1.431,1.562.215,1.1,1,1.586,1.789,2.183,3.638,2.791,7.276,5.582,10.675,8.671,2.278,2.087,3.781,4.819,5.8,7.121s4.771,4.139,5,7.622a.867.867,0,0,0,.561.632c2.028.083,3.125,2.016,4.95,2.421a4.67,4.67,0,0,1,3.674,4.067,2.377,2.377,0,0,0,1.288,1.873c1.932,1.1,4.365,1.729,4.222,4.819-.036.775.966,1.67,1.646,2.35.93.966,2.017,1.777,3.041,2.66.835,1.193-.024,2.529.25,3.686,1.36,5.7,1.944,11.522,3.077,17.259.3,1.466.692,2.9.954,4.388.8,4.568,1.431,9.185,2.612,13.7.489,1.872,1.562,3.984.382,5.976a1.471,1.471,0,0,0-.215-.083,3.141,3.141,0,0,0-1.992-.286c-4.246.607-8.54.739-12.81,1.12-1.932.167-3.888.179-5.821.477-5.069.787-8.731,4.246-12.75,6.93-3.364,2.254-6.715,4.425-10.89,4.5a98.906,98.906,0,0,0-12.178.584c-3.686.537-7.514.525-11.033,2a42.927,42.927,0,0,0-6.5,3.137,9.73,9.73,0,0,1-4.783,1.908,38.984,38.984,0,0,0-8.445,1.467,20.86,20.86,0,0,0-2.564.334,55.045,55.045,0,0,1-17.152,1.944c-2.087-.083-4.246-.3-6.25.477a45.564,45.564,0,0,1-14.122,3.507c-.811.215-1.658.179-2.469.346-1.67.477-3.3,1.05-4.938,1.634-5.713,2.052-11.224,4.747-17.317,5.665a37.256,37.256,0,0,0-15.733,6.441,37.617,37.617,0,0,1-6.547,3.972c-5.786,2.445-11.356,5.188-15.876,9.673a6.967,6.967,0,0,1-1.466,1.05c-8.529,5.057-14.075,12.977-19.944,20.61-3.006,3.924-5.284,8.349-8.8,11.939-2.719,2.779-5.308,5.713-6.881,9.435-2.291,5.4-4.712,10.758-6.74,16.269-1.527,4.163-3.291,8.23-4.711,12.44-1.908,5.642-3.4,11.391-5.545,16.961-1.6,4.115-3.674,8.087-4.581,12.476-1.467,7.228-3.267,14.372-4.676,21.612a18.641,18.641,0,0,1-.334,3.053c-2.207,9.124-3.709,18.44-7.228,27.23-.787,1.956-1.145,4.055-1.824,6.047-1.277,3.793-1.825,7.765-2.971,11.593-.859,2.815-2.421,5.343-3.1,8.242a83.04,83.04,0,0,1-6.524,18.487c-.717,1.431-1.373,2.874-1.981,4.33a4.99,4.99,0,0,0-.346-2.672,5.219,5.219,0,0,0,.3,2.767A91.435,91.435,0,0,0,5.277,828.5a51.069,51.069,0,0,1-3.852,12.724A24.362,24.362,0,0,0,0,844.8H671.093V611.939c-.5-.277-1-.553-1.481-.862M474.875,447.936h0c.012,0,.024.012.048.036-.024.013-.048.036-.072.049.012-.024.012-.06.024-.083m-95.634,37.8a.963.963,0,0,1,.239.117c-.083.143-.167.3-.262.453-.012-.226-.024-.428-.036-.6.021.006.038.021.059.029M304.611,539.2a.07.07,0,0,0-.021.021c0-.014-.008-.028-.011-.042a.175.175,0,0,0,.032.021m176.55-315.263c-.406,4.091-.691,8.2-1.217,12.273-1.263,9.876-3.756,19.227-13.1,24.737a60.85,60.85,0,0,1-20.61,7.538c-5.831,1.014-11.653,2.183-17.509,3.03a104.457,104.457,0,0,1-12.059,1c-5.355.167-10.723.262-16.054,0a92.8,92.8,0,0,1-26.586-4.986,28.456,28.456,0,0,1-5.367-2.755,38.274,38.274,0,0,0-6.335-3.35c-.262-.107-.525-.214-.775-.346-2.588-7.407-3.53-15.088-5.582-22.567-1.992-7.228-4.294-14.229-9.2-20.646-2.123-2.8-4.628-5.451-6.834-8.242.751-5.141.143-10.436,1.658-15.529,1.908-6.477,6.19-10.925,11.951-13.871A125.381,125.381,0,0,1,387.571,168.6a207.744,207.744,0,0,1,24.713-2.779c5.129-.334,10.223-.155,15.328-.31.774-.036,1.669-.334,2.337.429,3.329.417,6.7.227,10.055.644,8.993,1.1,17.952,2.1,26.288,6.178,7.144,3.495,11.581,8.862,13.048,16.674.085,1.634.74,3.2.632,4.854a4.126,4.126,0,0,1-.191,1.193,3.7,3.7,0,0,1-.942-.656c-.011-.012-.024-.012-.024-.024l-.036-.036-.036-.036c.036-.763.072-1.527.1-2.29a48.522,48.522,0,0,0-8.349-4.9c.012.06,0,.119.012.167,0,.31-.3.632-.382.954-.166.573-.739.692-1.312.441-3.447-1.562-8-1.61-11.9-2.541a189.018,189.018,0,0,0-24.774-3.912c-2.517-.25-5.5-.048-7.335-1.24a6.464,6.464,0,0,0-3.936-.93c-9.005.322-18.01,1.634-27.039,2.421-9.578.847-17.712,4.413-25.93,7.741a6.068,6.068,0,0,0-3.578,2.97c3.864-.763,7.909-4.055,10.687-.322-2.3,1.145-4.425,2.517-3.686,4.473.728,1.92,3.34,2.326,6.214,2.421a25.921,25.921,0,0,0,3.053.06c11.82-1.026,23.676-1.407,35.448-3.6,7.717-1.431,14.6-.608,21.362.62a46.81,46.81,0,0,0,8.744,1.1,16.908,16.908,0,0,1,7.251,1.348c2.051,1.026,4.151,2,6.011,3.125-.024,0-.036-.012-.06-.012v3.709h.227v-3.6a11.546,11.546,0,0,1,4.568,4.473,1.123,1.123,0,0,0,.656.572,9.569,9.569,0,0,1,4.343,2.35,9.125,9.125,0,0,0,.476,1.372c.013.012.013.036.024.048a8.162,8.162,0,0,0,2.219,3.853l.036.036a1.378,1.378,0,0,0,.143.143.541.541,0,0,0,.085.1l.13.131a3.116,3.116,0,0,0,.31.239,2.055,2.055,0,0,0,.215.155,1.389,1.389,0,0,0,.191.1,1.9,1.9,0,0,0,.3.131,1.427,1.427,0,0,0,.215.049,2.318,2.318,0,0,0,.3.035,2.092,2.092,0,0,0,.274-.012h.072a2.342,2.342,0,0,0,.286-.06c.025,0,.036-.012.061-.023a1.455,1.455,0,0,0,.2-.073.17.17,0,0,0,.072-.023,1.712,1.712,0,0,0,.287-.144h.011a20.863,20.863,0,0,0,2.791-.823,7.373,7.373,0,0,0,1.36-.227,3.128,3.128,0,0,1,.429-.084.694.694,0,0,1,.144-.012.567.567,0,0,1,.13-.012,1.937,1.937,0,0,1,.25.049,8.209,8.209,0,0,1,1.05,3.518,17.371,17.371,0,0,1-.038,5.136m58.573-131.9.005.019c.714-.513,1.215.2,1.7.669,4.58,4.365,8.612,9.089,11.188,14.992,1.455,3.365,3.948,6.143,6.083,9.112,1.047,1.44,1.9,3.023,2.938,4.711-1.023.668-1.834,1.807-3.024,1.319-2.719-1.121-4.95-2.958-5.57-5.975a7.885,7.885,0,0,0-.293-1.143c-.012-.035-.015-.073-.028-.108a7.846,7.846,0,0,0-.476-1.088c-.017-.032-.027-.068-.044-.1a8.061,8.061,0,0,0-.656-1.008c-.019-.025-.032-.054-.052-.079a7.971,7.971,0,0,0-.881-.964.376.376,0,0,0-.072-.06,1.727,1.727,0,0,0-.227-.191c-3.065-2.35-5.45-5.033-6.512-8.826-.942-3.375-3.7-6-4.15-9.613v-.034c-.025-.107-.049-.214-.073-.334-.115-.5-.269-1,.144-1.3m-4.292,9.527h-.005a1.54,1.54,0,0,1,.334-.083.189.189,0,0,1,.085-.011,3.471,3.471,0,0,1,2.706,1.323c1.3,1.467,2.612,2.91,3.948,4.353.751.823,1.5,1.647,2.266,2.47a39.479,39.479,0,0,0,4.175,3.518,1.745,1.745,0,0,1,.167.143,12.074,12.074,0,0,1,2.684,2.863c.056.088.111.17.162.25a1.2,1.2,0,0,1,.014,1.665c-.978,1.288.537,2.5.346,3.972-2.982-.561-3.817-4.175-6.857-4.771.118,2.087,1.454,3.566,1.9,5.355.143.584.429,1.229-.179,1.622-.525.358-.942-.167-1.4-.429a5.48,5.48,0,0,1-1.98-1.966,15.446,15.446,0,0,1-1.165-2.514,41.915,41.915,0,0,0-4.787-8.2c.6,4.21,4.054,7.753,2.362,12.44a42.063,42.063,0,0,1-3.647-8.9.213.213,0,0,1-.012-.1,22.4,22.4,0,0,1-.692-3.948c0-.024-.011-.06-.011-.082,0-.06-.013-.108-.013-.168-.072-.858-.167-1.718-.285-2.564-.156-1.145-.323-2.29-.478-3.435-.127-.991-.723-2.41.362-2.8M481.4,62.8c1-.752,1.611,1.239,2.351,2.074,2.35,2.612,4.579,5.332,6.822,8.039a119.863,119.863,0,0,0,8.849,9.888c.525.513,1.085,1,2.04,1.874a23.155,23.155,0,0,0-.644-3.269c-.084-.333-.178-.656-.274-.978A31,31,0,0,1,498.9,73.27c1.516,2.409,2.719,4.986,4.509,7.192.06.073.119.156.18.227q.894,1.092,1.752,2.184c.382.453.751.917,1.133,1.383q2.111,2.649,4.222,5.308a23.7,23.7,0,0,1,1.455,2.052,13.1,13.1,0,0,1,1.837,4.45,7.489,7.489,0,0,1,.155.906,6.716,6.716,0,0,0,1.634,3.732,22.182,22.182,0,0,0,.012-2.5c-.012-.56-.06-1.109-.119-1.646-.072-.6-.154-1.169-.262-1.741a28.253,28.253,0,0,0-1.193-4.233c-.118-.323-.25-.645-.38-.955-.049-.119-.1-.239-.156-.358a33.3,33.3,0,0,0-1.908-3.817,101.162,101.162,0,0,0-6.465-9.5c-.429-.585-.859-1.182-1.275-1.766a14.348,14.348,0,0,1,6.929,5.379c3.663,5.689,9.089,9.816,13.549,14.814.012.013.025.024.025.036a35.719,35.719,0,0,1,3.732,4.891,10.158,10.158,0,0,1-3.4-2.422l-.072-.072a7.878,7.878,0,0,0-2.864-1.873c-.573.955.99,1.385.751,2.315.751.906,1.516,1.812,2.266,2.718a2.252,2.252,0,0,1,.274.167.067.067,0,0,1,.048.037,8.1,8.1,0,0,1,2.266,3.1c.179.31.358.632.538.942a82.251,82.251,0,0,1,5.76,12.06c-1.4-.883-2.29-1.443-3.185-2.016-.143.082-.286.167-.429.238,1.3,2.637,2.457,5.356,3.936,7.885a67.326,67.326,0,0,0,6.417,9.458,9.2,9.2,0,0,0,2.35,1.992c2.445,1.5,3.554,4.008,4.95,6.285a1.278,1.278,0,0,1-.252,1.789l-.035.025a1.393,1.393,0,0,1-1.646-.37,15.449,15.449,0,0,1-3.3-3.96,33.073,33.073,0,0,0-5.236-7c0-.024-.011-.037-.037-.049-1.359-1.467-2.8-2.886-4.233-4.329.99,2,1.968,4.008,2.959,6.01l.072.144q1.035,2.11,2.074,4.221a5.964,5.964,0,0,1-3.459-3.518,56.078,56.078,0,0,0-7.884-12.107c-1.289-1.586-2.636-3.148-3.984-4.7a1.9,1.9,0,0,1-.681-1.36l-1.359-1.359c-.728-.25-1.312-1.479-2.074-.823-.453.393-.3,1.062-.026,1.669a1.383,1.383,0,0,0,.1.227c0,.013,0,.024.011.024.06.143.13.275.19.4a43.046,43.046,0,0,0,4.748,7.466c0,.013.023.037.035.06a.16.16,0,0,1,.037.048q1.575,2,3.352,3.864c.155.168.31.322.464.478a19.223,19.223,0,0,1,3.126,3.529,3.715,3.715,0,0,1,.526,2.375,3.885,3.885,0,0,1-1.862-1.432c-2.982-3.1-6.035-6.143-8.755-9.482-.263-.322-.525-.656-.787-.989-.786-1-1.54-2.041-2.241-3.1-.2-.3-.4-.608-.586-.9a3.13,3.13,0,0,0-.3-.406c-.107-.132-.215-.25-.334-.383-.237-.239-.5-.465-.728-.716-.249-.262-.548-.5-.621-.739s.1-.442.788-.657.2-.895-.024-1.348c-.775-1.561-1.515-3.149-2.327-4.686a2.239,2.239,0,0,0-.117-.216c-.371-.716-.753-1.43-1.17-2.135-.083-.143-.179-.3-.274-.453-.394-.667-.811-1.312-1.264-1.956a7.122,7.122,0,0,0-1.764-1.551c0-.011-.013-.011-.025-.024-.2-.143-.406-.286-.607-.441-.371-.286-.729-.561-1.075-.871l-.011-.011h-.013a40.1,40.1,0,0,1-3.483-3.341c-2.326-2.456-4.473-5.093-6.894-7.467-1.061-1.049-2.111-2.111-3.173-3.161a23.416,23.416,0,0,1-4.079-4.353.054.054,0,0,0-.012-.024c-1.217-1.622-2.325-3.316-3.566-4.9a.1.1,0,0,0-.048-.049L486,77.061c-.3-.406-.621-.788-.955-1.182a15.164,15.164,0,0,1-1.936-2.784,2.558,2.558,0,0,1-.179-.359,10.258,10.258,0,0,1-.99-3.422c-.024-.263-.227-.573-.179-.823a.365.365,0,0,1,.107-.216.588.588,0,0,1,.227-.131,1.112,1.112,0,0,1,1.145.477A22.889,22.889,0,0,1,486.8,73.5c.274.562.561,1.109.871,1.646a1.058,1.058,0,0,1,.1.156,24.47,24.47,0,0,0,2.028,2.873c.394.513.8,1,1.229,1.491l.012.013c1.634,1.9,3.412,3.7,5.021,5.617,1.635,1.956,3.435,3.769,5.178,5.631a.626.626,0,0,0,.8.19,1.078,1.078,0,0,0,.155-.06,8.083,8.083,0,0,0-.357-1.073,15.9,15.9,0,0,0-3.591-5.164c-4.377-4.593-8.325-9.518-12.226-14.492-.262-.323-.512-.644-.763-.967-.883-1.121-1.753-2.23-2.636-3.351-.751-.955-2.146-2.518-1.217-3.208ZM397.469,54.46h0c1.848.955,3.78,1.765,5.557,2.8.2.118.407.25.6.37,1.873,1.967,3.781,3.911,5.749,5.8,0,.012.012.012.025.024a.357.357,0,0,0,.072.073c.214.261.452.524.691.774.406.465.811.93,1.229,1.385.067.068.131.14.191.214.286.322.574.632.859.942,1.527,1.682,3.1,3.328,4.7,4.95,3.984,4.079,8.136,8.016,12.333,11.868.346.334.68.656,1.026.966-.009-.011-.019-.021-.028-.033.011.011.023.023.035.033-.151-.186-.314-.362-.466-.548a24.246,24.246,0,0,1,3.369,2.647,1.956,1.956,0,0,1,1.444.716l-.006-.012.013.012c-.883-1.953-1.752-3.871-2.622-5.778a11.915,11.915,0,0,1,2.65,1.994,11.108,11.108,0,0,1,1.491,1.776,14.727,14.727,0,0,1,.906,1.575c.6.6,1.2,1.2,1.8,1.813h.005a1.111,1.111,0,0,0,.441-.12.269.269,0,0,0,.167-.226,1.02,1.02,0,0,0-.07-.43c-.085-.214-.168-.428-.085-.583l-.953-1.24q-3.062-3.99-6.132-7.967c-.655-.859-1.312-1.706-1.968-2.564a11.556,11.556,0,0,1-3.137-4.509c-.131-.309-.261-.618-.369-.939a7.649,7.649,0,0,1,3.285,2.274.011.011,0,0,1,.011.011c.537.584,1.038,1.193,1.562,1.8,1.908,2.112,3.8,4.234,5.713,6.346.811.906,1.623,1.8,2.433,2.708a.626.626,0,0,1,.2.1c.68.347.99,1.24,1.932,1.4h.008a2.478,2.478,0,0,0-.215-.62c-.465-.942-1.372-1.611-1.466-2.672-.144-.192-.287-.37-.431-.562-.918-1.229-1.849-2.445-2.778-3.661q-2.7-3.561-5.392-7.1c-.047-.049-.107-.083-.155-.132-.477-.37-.918-.774-1.36-1.18-.227-.216-.453-.441-.668-.669-.274-1.311-1.562-2.016-1.682-3.292q-2.377-3.291-4.9-6.464c-1.17-1.479-2.375-2.922-3.591-4.353a.831.831,0,0,0,.107-.215,2.2,2.2,0,0,0,.228-1.665c4.623,2.684,7.4,7.189,11.109,10.718.154.154.3.31.452.453,1.24-.584.251-1.109-.048-1.646-.667-1.217-1.765-2.171-2.338-3.459-.024-.048-.048-.107-.072-.155a.38.38,0,0,0-.047-.1V58.1a4.089,4.089,0,0,1-.132-.406c-.031-.13-.059-.246-.082-.375.26.225.532.448.792.684,1.121.967,2.207,1.968,3.28,2.994,5.3,5.082,10.055,10.723,15.458,15.863.287.227.561.477.835.728h.007a2.137,2.137,0,0,0,.024-.608A2.817,2.817,0,0,0,448,75.344c-.2-.227-.417-.441-.62-.668-1.789-1.919-3.566-3.853-5.355-5.76a.325.325,0,0,1-.04-.05c.281.247,1.047.99,2.85,2.744l-.187-.188.194.188c-7.293-7.34-10.65-10.961-13.446-14.188-.4-.461-.788-.914-1.174-1.368s-1.157-1.039-1.11-1.753c-.011,0-.011-.013-.011-.025l.011-.012a.9.9,0,0,1,.191-.525c.5.537,1,1.062,1.516,1.586.655.68,1.311,1.36,1.979,2.028q.555.591,1.146,1.146c.859.846,1.728,1.681,2.623,2.492a6.515,6.515,0,0,0-.954-2.159,21.03,21.03,0,0,0-3.458-3.708,21.288,21.288,0,0,1-2-2.041c.036,0,.073-.011.109-.011a.353.353,0,0,1,.107-.013c.453.441,1.085,1.062,2,1.956q-.859-.966-1.789-1.932a2.422,2.422,0,0,1,.943.429c.249.167.5.358.726.489.991.561,1.957,1.157,2.888,1.777a.036.036,0,0,0,.023.013c.168.118.334.238.5.346l.036.035a31.786,31.786,0,0,1,4.889,4.1.055.055,0,0,1,.012.024,23.47,23.47,0,0,1,2.958,3.769,16.486,16.486,0,0,1,.918,1.539,22.5,22.5,0,0,0,2.409,3.494c.215.25.417.488.633.727l.011.012q.6.662,1.2,1.288c1.145,1.181,2.35,2.314,3.519,3.483a3.349,3.349,0,0,0,2.087.99c-.261-2.147-2.063-3.4-2.481-5.534a6.631,6.631,0,0,1,1.348.633,6.388,6.388,0,0,1,.93.643,10.075,10.075,0,0,1,1.026.966c.252.274.489.55.716.836.012,0,.012.011.025.024,1.251,1.705,2.48,3.422,3.65,5.153.977,1.43,1.919,2.873,2.814,4.329.657.6,1.312,1.193,1.993,1.814.345.464.691.941,1.05,1.418q2.556,3.471,5.1,6.978a1.668,1.668,0,0,1,.166.227q1.254,1.718,2.529,3.435c.489.691,1,1.372,1.5,2.062.119.155.085.43.119.656,1.4,1.264,2.791,2.542,4.449,4.043-.167-.834-.274-1.311-.37-1.777-3.041-4.473-6.155-8.9-9.506-13.132-.345-.321-.668-.656-.99-1a23.424,23.424,0,0,1-1.944-2.409.012.012,0,0,1-.012-.01h0a.011.011,0,0,1-.011-.011c-.383-.525-.753-1.062-1.1-1.609a.182.182,0,0,1-.048-.084c-.394-.716-.823-1.406-1.288-2.086-.547-.931-1.085-1.885-1.622-2.828a37.036,37.036,0,0,0-5.093-6.81c-.477-.513-.942-1.026-1.394-1.552-.4-.429-.776-.859-1.157-1.288,0-.011-.013-.024-.025-.036l-.036-.035a.011.011,0,0,1-.011-.011c-1.242-1.741-2.506-3.459-3.782-5.176q-.481-.84-.966-1.682a34.937,34.937,0,0,0-2.35-3.554c.775.716,1.5,1.491,2.242,2.254.477.489.954.955,1.455,1.4a10,10,0,0,0,3.924,2.29,3.535,3.535,0,0,1,1.622,1.539,30.448,30.448,0,0,0,5.918,6.628l.011.012c.92.836,1.861,1.622,2.816,2.422,1.06.9,2.134,1.812,3.173,2.754a2.447,2.447,0,0,0,.416.322,3.484,3.484,0,0,0,1.075.549,5.88,5.88,0,0,0,.9.2c-.453-1.181-.859-2.242-1.264-3.316-.155-.3-.31-.6-.453-.906-2.766-3.912-6.155-7.311-9.172-11.021-.38-.453-.74-.918-1.1-1.384-.3-.37-.573-.751-.835-1.133a15.914,15.914,0,0,0-.787-1.849,19.42,19.42,0,0,0-1.229-2.1.7.7,0,0,0-.072-.1,4.1,4.1,0,0,0-.394-.573,2.507,2.507,0,0,1-.036-.441c0-.155.012-.322.024-.489a.713.713,0,0,0,.012-.146,4.559,4.559,0,0,0-.918-2.327c-.441-.775-1.24-1.371-1.418-2.624a2.683,2.683,0,0,1-.037-.465c.847.752,1.682,1.455,2.5,2.159.012.012.012.024.025.024.416.358.823.716,1.229,1.073,0,0,0,.012.011.012a57.88,57.88,0,0,0,4.294,5.1c.072.1.155.191.227.274a.673.673,0,0,1,.1.167c.126.217.241.439.345.668a19.8,19.8,0,0,0,1.073,1.98A32.272,32.272,0,0,0,466.034,65c1.4,1.718,2.9,3.364,4.318,5.081,1.24,1.491,2.541,2.958,3.626,4.556a10.6,10.6,0,0,0,.632.859,23.78,23.78,0,0,0,4.27,4.068c1.825,1.418,3.733,2.73,5.439,4.293a42.517,42.517,0,0,1,7.264,8.123c.155.155.3.31.453.453a102.315,102.315,0,0,1,8.206,8.337c.012.012.036.036.036.048-.918.024-1.407.286-1.551.763-.012.012-.012.024-.012.048a1.9,1.9,0,0,0,.155,1.2.029.029,0,0,0,.013.024c.668,1.658,2.826,4.187,5.473,7.025l.036.036c2.266,2.433,4.878,5.081,7.241,7.633-.7.382-.55,1.288-.12,2.385a15.753,15.753,0,0,0,4.771,6.083,14.111,14.111,0,0,1-1.276-.954c-.036-.012-.058-.036-.058-.048a53.648,53.648,0,0,1-7.169-7.92.876.876,0,0,0-.1-.119,35.453,35.453,0,0,0-6.286-6.381.066.066,0,0,0-.048-.036,19.053,19.053,0,0,0-2.1-1.312c4.281,6.477,9.47,11.629,13.943,17.319a4.092,4.092,0,0,0-1.48-.729c.191.286.382.573.586.859-6.333-4.365-10.151-11.45-16.592-16.15.12.966.192,1.6.334,2.8-.489-.31-.965-.632-1.419-.954h-.012c-.464-.346-.906-.68-1.336-1.026-.285-.227-.573-.465-.847-.716a70.411,70.411,0,0,1-7.025-7.228,75.4,75.4,0,0,0-6.011-6.31,29.038,29.038,0,0,0-3.65-2.839c-.3,1.2,1.193,1.741,1.11,2.839,3.244,4.616,6.822,8.969,10.483,13.263.274.334.561.668.848,1l.011.012c.143.859,1.193,1.4,1.121,2.314,3.2,4.485,6.679,8.743,10.222,12.953q1.932,2.308,3.889,4.616c.726.871,1.466,1.741,2.193,2.612.156.191.322.382.477.573.872,1.051,1.731,2.087,2.589,3.15l.011.011c.644.775,1.276,1.562,1.9,2.351a6.78,6.78,0,0,1,1.039.882c1.336,1.4,2.074,3.256,3.327,4.735.143.167.287.334.441.5.012.012.024.036.048.048a51.535,51.535,0,0,0,6.19,5.689,36.137,36.137,0,0,0,5.834,6.31c-.1-.274-.191-.549-.3-.811.082.072.154.155.225.215a8.191,8.191,0,0,0,1.145,1c4.783,3.459,7.264,8.647,10.436,13.323a11.324,11.324,0,0,1,.775,1.622,7.521,7.521,0,0,1,.179,1.24c-4.783-3.817-7.168-9.232-11.689-12.524-.142.107-.3.215-.453.334q3.381,5.421,6.763,10.866c.155.25.346.489.478.751.3.608.977,1.217,1.05,1.837a1.355,1.355,0,0,1,.011.191,2.46,2.46,0,0,0-.787-.477.545.545,0,0,0-.561.036c-.011,0-.024.012-.036.024a1.346,1.346,0,0,0-.345.823c-.036-.012-.072-.036-.109-.048a1.288,1.288,0,0,0-.99-.048c.37.573.751,1.145,1.1,1.753a.1.1,0,0,1,.023.06,29.535,29.535,0,0,0,.513,2.982.538.538,0,0,1,.025.119,21.869,21.869,0,0,0-3.758-1.169,5.23,5.23,0,0,0-1.229-.966,2.672,2.672,0,0,0,.012.692,29.573,29.573,0,0,1-5.331-1.515c-1.67-.465-3.3-.978-4.926-1.562q-2.987-1.9-6.023-3.733c-2.445-1.479-4.938-2.934-7.466-4.413a8.625,8.625,0,0,0,1.24,1.682c.347.37.717.716,1.085,1.062-.035-.024-.06-.036-.1-.06-3.125-2-4.878-5.2-6.811-8.23,0-.012-.012-.012-.012-.024a3.674,3.674,0,0,1-.2-.322c-.106-.167-.214-.334-.334-.5,0-.012-.012-.012-.012-.024-.3-.465-.6-.954-.906-1.419s-.6-.93-.905-1.384a3.9,3.9,0,0,0-.24-.37c-.906-1.4-1.825-2.779-2.791-4.151-.239-.37-.489-.739-.751-1.1-2.362-3.387-4.842-6.691-7.514-9.864-.227-.131-.44-.25-.667-.394-.144-.215-.3-.441-.454-.668s-.31-.453-.453-.68c-.179-.274-.357-.537-.547-.811a119.448,119.448,0,0,0-11.907-14.934,8.7,8.7,0,0,0,.573,1.336c.107.215.215.43.322.633a8.4,8.4,0,0,0,.478.834c.13.228.262.442.406.668a2.223,2.223,0,0,1,.166.262c.787,1.241,1.634,2.421,2.385,3.757a18.859,18.859,0,0,1,1.109,2.3,45.483,45.483,0,0,1-8.075-6.988c-.62-.836-1.24-1.659-1.873-2.494q-1.324-1.7-2.743-3.328c-.382-.441-.775-.883-1.169-1.311a75.92,75.92,0,0,0-7.025-6.846c-.942-.812-1.873-1.622-2.79-2.458q-1.809-1.591-3.542-3.256c-1.634-1.515-3.234-3.077-4.807-4.664-.526-.525-.979-1.109-1.468-1.669a15.283,15.283,0,0,0-1.908-1.611c-.656-.477-1.336-.93-1.98-1.407-.429-.321-.835-.643-1.229-.99-2.432-2.159-4.853-4.317-7.156-6.632-.87-.847-1.718-1.729-2.541-2.636q-1.307-1.413-2.5-2.922c-.794-1-1.731-1.885-2.589-2.827-1.67-1.084-2.6-2.9-4.031-4.175-2.147-1.932-4.21-3.924-6.19-6-.37-.382-.728-.75-1.085-1.144-1.038-1.276-2.028-2.588-2.958-3.948-.906-1.3-1.765-2.637-2.563-4.02a6.438,6.438,0,0,0-2.087-1.789h-.03a.258.258,0,0,0-.309.1c-.013,0-.025.025-.025.025-.011.024-.011.047-.024.071a.064.064,0,0,0-.036-.047c-2.075-2.529-4.89-4.318-7.526-6.3-.106-.072-.215-.156-.333-.25-.383-.68-.765-1.348-1.17-2.016,0-.012-.012-.012-.012-.025l-.215-.357a.833.833,0,0,0,.094.048m15.668,32.49c-.054-.057-.1-.113-.157-.169a.6.6,0,0,0,.105-.059h.006a1.613,1.613,0,0,1,.046.228m-4.014-2.124h0a.205.205,0,0,0-.077.045l-.033-.166a1.192,1.192,0,0,0,.114.122M376.2,45.947l.072.143a1.218,1.218,0,0,0-.166-.1.668.668,0,0,1,.094-.044m-4.562,1.1a.612.612,0,0,0-.066.077l-.035-.031a.209.209,0,0,1,.1-.046M333.262,2.472a.41.41,0,0,0,.072-.072c.012-.036.036-.072.048-.107a.469.469,0,0,0,.049-.107c.011-.036.011-.072.023-.107.013-.012.013-.012.013-.023a.239.239,0,0,1,.023-.073.649.649,0,0,1-.155.417.263.263,0,0,1-.107.119c.024-.012.036-.023.036-.048ZM331.771,2.1q.008.03.012.06v.019a.2.2,0,0,1-.012.083.4.4,0,0,1,0-.162M279.1,40.9c.043.018.087.034.131.048-.048.012-.083.012-.131.024,0-.024.012-.048,0-.072M274.031,9.239h0l.012.012c-.012.012-.024.024-.036.024.012-.012.024-.024.024-.036M273.4,20.916a.7.7,0,0,1,.083.155c-.1-.009-.207-.013-.31-.012a.955.955,0,0,1,.227-.143m-1.364,22.527a1.577,1.577,0,0,1-.2.092,2.509,2.509,0,0,0-.3-.012,3.69,3.69,0,0,1,.5-.08m-14.7-19.187h.143c-.012.012-.012.024-.024.048-.036-.011-.083-.036-.119-.048h-.191v-.1a.992.992,0,0,1,.191.1M223.578,156.538c2.135-5.69,4.473-11.308,3.018-17.618a3.508,3.508,0,0,1,.215-1.539A97.26,97.26,0,0,1,233.466,121c3.6-7.514,7.395-14.945,11.665-22.1a1.545,1.545,0,0,1,.179-.3.136.136,0,0,1,.06-.083c.811-1.4,1.67-2.791,2.541-4.163,3.03-4.759,5.976-9.59,9.458-14.015a.312.312,0,0,1,.1-.119,57.176,57.176,0,0,1,4.27-4.89c4.234-4.282,8.421-8.612,12.989-12.548,6.143-5.308,12.977-8.456,21.362-6.906a9.7,9.7,0,0,0,3.364-.131c3.781-.608,7.407-2.242,11.367-1.622,1.765.274,4.1-.083,5.129,1.1a7.077,7.077,0,0,0,4.771,2.374c5.367.561,9.721,3.22,14,6.071a10.614,10.614,0,0,0,4.449,1.885c2.338.346,4.783.608,6.727,2.218.382.3.811.513,1.217.179.429-.358.167-.787.024-1.228-.716-2.231-2.564-3.15-4.485-4.128a61.042,61.042,0,0,1-7.753-4.078c1.169-.633,2.016-.025,2.767.31a53.982,53.982,0,0,0,6.023,1.7c1.837.561,2.385-.358,2.338-1.873-.06-2.469.31-4.938-.333-7.407a26.6,26.6,0,0,1-.443-4.352,5.472,5.472,0,0,1,.763.846,36.8,36.8,0,0,1,1.968,4.282c.871,2.9,3.6,4.318,5.379,6.512.383.477.775.954,1.181,1.42a.625.625,0,0,0,.119.143c2.779,3.375,5.689,6.631,8.671,9.815,0,.013.024.013.024.013,2.791,2.993,5.665,5.927,8.564,8.813a41.74,41.74,0,0,0,6.2,5.188,27.109,27.109,0,0,0,3.232,1.9c1.217.751,2.421,1.5,3.626,2.255.74,1.216,2.075,1.669,3.149,2.42,5.726,4.008,11.5,7.992,17.952,10.77,3.41,1.479,6.988,2.564,10.316,4.282a2.424,2.424,0,0,0,2.433.346,6.259,6.259,0,0,0-3.972-3.781c-.453-.3-.906-.607-1.36-.906-2.015-2-4.759-2.731-7.18-4-4.7-2.42-9.506-4.6-12.893-8.969a10.565,10.565,0,0,0-5.677-4.163,8.8,8.8,0,0,1-3.459-1.467c-4.676-3.6-7.944-8.468-11.641-12.941-.918-1.109-1.992-2.218-2.1-4.02,1.992.954,3.3,2.518,4.938,3.614,2.29,1.527,3.721,4.091,6.322,5.236,3.173,3.364,7.037,5.928,10.413,9.053,2.648,2.719,5.451,5.261,8.015,8.087a11.9,11.9,0,0,0,8.361,4,5.368,5.368,0,0,0-.573-.99,7.566,7.566,0,0,0-1.157-1.062,89.862,89.862,0,0,1-14.313-12.165c-.584-.633-1.085-1.5-2.147-1.492-.143-.154-.3-.3-.453-.453-.883-1.682-3.089-2.456-3.542-5.164a32.211,32.211,0,0,0,8.194,4.877c-2.385-2.66-6.083-3.423-8.576-5.8-2.445-2.327-5.367-4.378-6.966-7.766,1.516-.107,2.087,1.169,3.185,1.169h.012c.608.453,1.217.907,1.813,1.36.347.716,1.1,1,1.586,1.515,2.063,2.147,5.045,2.2,7.467,3.472,5.665,4.974,9.005,11.987,14.921,17.007-4.306-8.588-8.886-16.77-15.828-23.354.036-.978-.763-1.419-1.324-1.992-2.171-2.207-4.365-4.377-6.548-6.56a8.594,8.594,0,0,1-2.4-3.841c1.611.918,2.863,1.479,4.067,2.254,2.3,1.515,3.745,3.841,5.749,5.618,4.151,5.188,9.1,9.721,12.679,15.386.191,1.467,1.825,2.135,1.992,3.59a9.256,9.256,0,0,0,2.982,5.463c1.908,3.077,4.89,5.141,7.192,7.848.334.394.645.811.954,1.217.478,1.992,2.719,3.041,3.053,5.2-1.133.167-1.932-.716-3.113-.334,2.338,3.96,4.27,8.1,7.979,10.794,3.137,2.278,6.488,4.246,9.279,6.977.453.453.908.9,1.36,1.348-.024.978.751,1.443,1.337,1.992A63.347,63.347,0,0,1,442.942,128c3.626,4.473,7.013,9.16,11.738,12.607,3.3,3.173,6.3,6.679,9.947,9.506,2.217,2.588,5.163,4.008,8.385,5.093q-2.382-2.1-4.748-4.2c-2.564-2.731-5.332-5.236-8.145-7.693-.55-.62-1.051-1.288-1.647-1.849-5.247-4.926-10.627-9.721-15.267-15.267a13.608,13.608,0,0,1-3.125-4.938,35.411,35.411,0,0,1,5.582,5.343,66.369,66.369,0,0,0,8.863,8.612c.309.25.774.5.881.024.406-1.753,1.085-.716,1.622-.191,2.9,2.827,5.57,5.928,8.85,8.326,2.625,1.907,4.52,4.519,6.846,6.69a6.244,6.244,0,0,0,.514.489,28.545,28.545,0,0,0,6.787,5.892c.858,1.765,3.207,2.123,4.114,4.544-3.769-1.74-7.371-.8-10.949-.871-4.175-.394-8.336-.954-12.524-1.145-9.159-.417-18.344-.978-27.493-.859-10.353.143-20.764.143-31.011,1.825-14.539,2.385-28.936,5.487-42.867,10.424a216.551,216.551,0,0,0-20.3,7.979c-4.986,2.35-10.413,2.374-15.684,3.2a124.965,124.965,0,0,1-15.243,1.121c-4.735.131-9.363-.883-14-1.729-7.18-1.312-14.384-2.541-21.624-3.519-2.314-.322-4.652,0-6.918-.656a1.38,1.38,0,0,0-1.24-.382c-8.576.227-17.152-.334-25.727.346-4.485.346-8.91,1.026-13.323,1.729a13.094,13.094,0,0,1-2.982.262c-.012.012-.012.012-.024,0h-.012c-1.741-.131-1.956-1.276-1.622-4.52a1.908,1.908,0,0,0,.012-.453,18.33,18.33,0,0,1-.374-3.384c-.087-4.811,1.648-9.315,3.344-13.811M395.618,92.2c2.314,1.443,4.687,2.779,7.109,4.055-2.422-1.255-4.8-2.593-7.109-4.055M216.111,103.962c.024.012.036.036.06.06,0,.036.012.06.012.1l-.107-.107a.168.168,0,0,1,.036-.048Zm-1.775-52.086c-.008.012-.017.023-.026.034l-.01-.012.035-.026M208.777,85.6h0V85.53a.038.038,0,0,1,.023.011.566.566,0,0,0,.059.118c-.023-.012-.047-.035-.081-.059m.144.1a.14.14,0,0,1,.011-.067,1.564,1.564,0,0,1,.141.141.088.088,0,0,1-.048.024.858.858,0,0,1-.1-.1M189,201.7h0c3.28-3.937,7.836-5.822,12.416-7.669.131-.06.3-.06.441-.107,1.419-.442,3.1-1.6,4.186-1.182,1.443.562-.036,2.362.1,3.674.99,9.339,1.443,18.75,3.244,27.993.489,2.493,1.825,4.7,2.827,7.372a8.87,8.87,0,0,1-4.222-3.353c-4.938-4.079-9.924-8.123-14.5-12.643A7.216,7.216,0,0,1,191.369,211a2.873,2.873,0,0,0-.68-2.028c-.525.31-.608.847-.8,1.312-1.753.954-2.028-.179-2.266-1.539-.453-2.54-.584-5,1.371-7.047m13.221,78.4h.007c-5.582-2.624-9.005-7.335-10.949-12.87a124.684,124.684,0,0,1-7.228-35.973,5.844,5.844,0,0,1,.415-3.227c6.678,4.411,14.083,7.476,20.808,11.734,2.624.584,4.616,2.373,7.073,3.732h.007c.358-1.682-.358-3.185-.537-4.724-.083-.668-.429-1.586.072-1.9a.906.906,0,0,1,.286-.122c.6-.123.714.786,1.079,1.161s.632.716,1.312.645c.883-.1.608-.656.7-1.12a6.027,6.027,0,0,0,.1-.669c.083-3.4.906-6.464,3.853-8.612a1.365,1.365,0,0,0,.406-.787c.883-4.485,4-7.562,6.834-10.818a9.394,9.394,0,0,1,5.009-2.8,24.54,24.54,0,0,0,6.083-2.768,32.4,32.4,0,0,1,11.013-4.182,19.628,19.628,0,0,1,4.068-.159c8.576.573,17.02-.99,25.513-1.8h.007a11.6,11.6,0,0,0,2.159-.585c2.028-.6,3.841-1.514,4.163-3.876.322-2.421-1.324-3.662-3.077-4.616.594-1.814,1.416-2.5,2.359-2.643,1.574-.229,3.486,1.064,5.244,1.213H289a4.736,4.736,0,0,0-2.839-2.874c-6.166-2.493-12.309-5.3-19.191-4.664-5.669.533-11.373.6-17.01,1.375q-1.211.166-2.415.379a3.9,3.9,0,0,0-2.7,1.753c-1.181,1.706-3.316,1.981-5.081,2.7a101.936,101.936,0,0,0-17.163,8.768c-2.672,1.753-5.9,2.587-8.182,5a.919.919,0,0,1-.289.209c-.284.118-.55-.03-.682-.511a7.215,7.215,0,0,1-.37-1.049,38.546,38.546,0,0,1,1.264-13.109c.62-2.253,2.7-2.779,4.664-3.352a75.917,75.917,0,0,1,10.345-2.3q3.143-.471,6.322-.68c.048,0,.1-.011.143-.011.7-.12,1.407-.216,2.111-.31h.007a.012.012,0,0,0,.012-.011c.011-.028.025-.037.04-.038a.1.1,0,0,1,.053.038h.007l4.136-1.062c11.855-1.084,23.649-.75,35.253,2.3,3.733.99,7.562,1.539,11.212,3.018,5.928,2.385,8.922,6.846,9.792,12.87.787,5.427,1.073,10.9-.382,16.3-.119.429-.322.835-.406,1.276-.083.477-.239.953-.692,1.085a.788.788,0,0,1-.236.039c-.5,0-.564-.649-.8-.982-.264-.367-.424-.963-.863-.949a.633.633,0,0,0-.206.044c-.382.13-.608.775-.823,1.229-.334.668-.6,1.372-.918,2.051a1.9,1.9,0,0,1-1.335,1.239,3.369,3.369,0,0,1-1.33-.071c-3.578-.763-7.013-2.04-10.662-2.6a18.079,18.079,0,0,0-5.1.048q-.844.128-1.676.335c1.467,1.1,3.065.763,4.461,1.145,3.829,1.026,7.729,1.825,11.08,4.1A8.449,8.449,0,0,1,291.7,237.9a1.956,1.956,0,0,1-2.46,1.267h-.005l-.045-.015a21.692,21.692,0,0,1-5.367-2.242c-4.9-2.564-10.162-2.469-15.386-1.944q-1.176.115-2.325.321c-5.362.953-10.287,3.273-15.048,5.98a33.228,33.228,0,0,1-7.371,3.28,18.952,18.952,0,0,0-5.379,2.743c-.329.213-.638.531-1.007.547a.736.736,0,0,1-.393-.107c-.56-.323-.417-.954-.334-1.443a21.728,21.728,0,0,1,8.111-13.8,12.019,12.019,0,0,0,3.03-2.564h-.007a17.145,17.145,0,0,0-10.663,6.441c-2.481,3.185-5.475,5.951-7.657,9.375a11.761,11.761,0,0,0-2,4.473,11.41,11.41,0,0,1-2.886,6.1h.007c.527-.08,1.055-.155,1.581-.233l.2-.029c.6-.09,1.192-.186,1.785-.3.253-.049.527-.118.79-.155a1.042,1.042,0,0,1,1.1.335c.5.7-.083,1.527-.6,1.992-1.169,1.038-2.469,1.932-3.733,2.874-.406.3-1.014.489-.716,1.181.227.536.763.358,1.181.394a8.672,8.672,0,0,0,6.734-1.981,17.987,17.987,0,0,1,9.184-4.294,15.788,15.788,0,0,0,10.937-6.763c.167-.25.274-.538.453-.776,1.1-1.514,1.68-2.288,2.223-2.3s1.05.753,2,2.3c1.407,2.277,3.471,2.933,5.9,2.946a6.578,6.578,0,0,0,.794.027.55.55,0,0,0,.525-.517c.072-.465-.465-.68-.859-.919-1.348-.81-2.338-1.8-2.147-3.6a2.3,2.3,0,0,1,1.145-2.052,1.1,1.1,0,0,1,.271-.1c.6-.135,1.018.383,1.475.747,2.713,2.171,5.665,3.3,9.014,2.725a11.7,11.7,0,0,0,1.465-.352c1.932-.609,3.1-2.076,4.246-3.555a2.976,2.976,0,0,1,1.833-1.374,1.28,1.28,0,0,1,.724.183c1.193.7.978,1.956.334,3.149a6.157,6.157,0,0,1-3.006,2.576c-.787.382-1.8.358-2.35,1.216a11.635,11.635,0,0,0,4.949.463A5.15,5.15,0,0,0,286.3,245.8a3.836,3.836,0,0,1,3.03-3.2c1.023-.227,1.513-1.212,2.593-1.383.476,1.133-.322,1.789-.8,2.587-1.444,2.422-3.341,4.687-3.007,7.8a4.313,4.313,0,0,0,.036.894c2.338,5.917-1.527,10.115-4.139,14.588-1.813,3.1-4.854,5.045-7.633,7.2a2.979,2.979,0,0,1-1.333.693,3.009,3.009,0,0,1-.5.069h-.007a70.492,70.492,0,0,1-21.817,7.53,131.381,131.381,0,0,1-29.794,1.671c-2.643-.113-5.295-.29-7.923-.63a42.72,42.72,0,0,1-12.791-3.51m38.717,132.87.034-.068a.1.1,0,0,1,.045.046c-.023.011-.055.012-.079.022"/><path class="c" d="M443.315,356.686h0a14.7,14.7,0,0,0-2.291-5.425,89.731,89.731,0,0,0-13.563-15.5c-7.144-6.333-12.738-14.2-19.642-20.792-2.042-1.95-3.991-4.153-6.954-5.6a7.244,7.244,0,0,0,1.865,3.855q19.889,22,39.877,43.918Z"/><path class="c" d="M375.293,312.528a10.182,10.182,0,0,0-1.752.377c-5.439,1.372-10.055.477-14.444-3.542-4.258-3.9-9.733-4.5-15.3-2.624-4.138,1.36-8.241,2.755-11.772,5.439-2.326.942-3.566,3.113-5.284,4.735-.215.2-.453.728-.084.978a1.407,1.407,0,0,0,1.085.119c1.5-.406,2.994-.9,4.509-1.312,5.534-1.515,11.2-.68,16.818-.918a17.781,17.781,0,0,1,6.991,1.36,15.4,15.4,0,0,0,7.215,1.312,27.893,27.893,0,0,0,11.046-3.459c.881-.513,2.551-.883,2.2-1.849-.185-.525-.666-.653-1.233-.616m-3.431,2.594c0-.011-.012-.022-.012-.034h.069a.232.232,0,0,0-.057.034"/><path class="c" d="M456.535,413.146c.056-.407.584-.867.044-1.206s-.992.062-1.376.448a43.319,43.319,0,0,0-3.789,3.876c-1.568,2.038-3.561,3.923-3.535,7.048a4.107,4.107,0,0,0,1.189,3.311,15.692,15.692,0,0,1,4.167,7.532c.075.383.048,1.045.692.948.618-.093.707-.669.745-1.221a12.623,12.623,0,0,0-1.819-8.163c-1.968-2.976-1.76-4.536.693-7.167a9.968,9.968,0,0,0,2.989-5.406"/><path class="c" d="M483.834,420.347c.606-.659.956-1.458,1.569-2a66.268,66.268,0,0,0,9.887-11.279c1.564-2.2,3.034-4.584,2.781-7.579-.305.057-.485.037-.582.118a2.087,2.087,0,0,0-.6.648c-2,4.468-5.346,7.854-8.653,11.344-2.521,2.659-5.063,5.479-5.875,9.7a3.276,3.276,0,0,0,1.473-.95"/><path class="c" d="M428.4,400.448c.048-.575.382-1.505-.583-1.687-.988-.185-1.229.759-1.48,1.413-2.128,5.544-2.191,11.042.7,16.428-.6-1.9-.032-3.651.268-5.481.584-3.522.8-7.108,1.1-10.673"/><path class="c" d="M360.613,386.231c5.142.217,9.451-3.924,14.576-1.44-3.143-1.9-4.716-4.823-6.17-8.084,1.187,6.684-4.511,7.123-8.406,9.524"/><path class="c" d="M557.955,365.636v-.008c-3.993-.425-5.7-3.641-8.076-6.806-.5,4.231-.875,7.785-1.342,11.329-.829,6.3-2.275,12.54-1.994,18.951.173,3.965,1.368,7.814,1.453,11.8-.37,7.829-.68,15.661-.536,23.5-.518.364-.443.924-.44,1.435q.03,11.506.081,23.01-.045,4.526-.088,9.053c-.887,1.447-.3,3.02-.386,4.535V464.8l.347-.013V462.44a3.182,3.182,0,0,0,.086-.375c.829-4.39.3-8.814.327-13.224.317-6.89.239-13.783.148-20.677a10.427,10.427,0,0,0,.413-3.77c.013-4.4-.192-8.82.074-13.208a90.577,90.577,0,0,0,.31-10.289l.043-3.125c.831-1.857.525-3.746.117-5.623-.341-1.567-.75-3.715.136-4.555,2.291-2.171,1.881-4.957,2.494-7.478.589-2.428,1.868-4.85,1.226-7.4a9.574,9.574,0,0,1,1.068-7.085c1.472-.46,2.878.627,4.541,0"/><path class="c" d="M428.89,380.7l.561.111a2.623,2.623,0,0,0,.5-.7,36.619,36.619,0,0,0,1.007-16.612c-.078-.427-.033-1.432-.9-1.308-.7.1-.708.856-.717,1.473a88.942,88.942,0,0,1-.4,10.577,49.194,49.194,0,0,0-.052,6.459"/><path class="c" d="M422.727,415.566c-.541,5.2.974,12.17,3.427,15.3-.031-5.73.685-11.313-3.291-16.317q-.082.495-.136,1.015"/><path class="c" d="M546.968,468.1c-1.015,1.633-1.415,30.581-.546,35.756,1.075-12.118.237-23.837.546-35.756"/><path class="c" d="M483.475,409.6c5.248-4.009,6.151-10.531,9.33-15.763a76.193,76.193,0,0,0-9.33,15.763"/><path class="c" d="M461.387,425.838c2.789-2.648,4.524-9.786,3.02-12.864-1.654,3.6-3.437,11.313-3.02,12.864"/><path class="c" d="M311.029,658.054c1.819,2.6,3.826,4.946,7.669,5.042-2.189-1.979-4.362-3.973-6.585-5.911a1.381,1.381,0,0,0-.677-.4.546.546,0,0,0-.491.229.822.822,0,0,0,.083,1.035"/><path class="c" d="M301.234,571.56c.995,3.622,3.714,5.753,6.277,8-.777-2.968-3.921-6.875-6.277-8"/><path class="c" d="M320.32,478.541a1.825,1.825,0,0,0-.512.494c-1.221,1.561-2.41,3.149-3.924,5.139,1.6-.385,3.028.258,3.771-.818a13.945,13.945,0,0,0,1.426-3.731,1.183,1.183,0,0,0-.169-1.042.51.51,0,0,0-.592-.042"/><path class="c" d="M395.377,468.447a11.572,11.572,0,0,0-2.861-7.42q-.262-.32-.546-.627l2.84,10.324a5.4,5.4,0,0,0,.567-2.277"/><path class="c" d="M287.5,353.089c1.481-2.65,2.588-5.485,5.414-7.862-3.48,1.181-5.88,4.136-5.844,6.42a2.62,2.62,0,0,0,.43,1.442"/><path class="c" d="M404.844,462.014c.187.457.143,1.176.853,1.023.627-.135.648-.84.522-1.319-.494-1.9-1.071-3.785-1.617-5.674a7.152,7.152,0,0,0,.242,5.97"/><path class="c" d="M397.238,441.044a4.389,4.389,0,0,0-.2.481c-.781,2.2.735,3.8,1.816,5.87.394-2.738-.432-4.715-1.333-6.852a5.324,5.324,0,0,0-.28.5"/><path class="c" d="M539.083,306.911a.63.63,0,0,0-.263-.17c-.385-.044-.387.347-.476.6a10.4,10.4,0,0,0,.014,5.781c1.4-1.85.884-3.928.872-5.934a.625.625,0,0,0-.147-.277"/><path class="c" d="M540.777,319.485c.1-.26.205-.515.294-.778.136-.408.3-1.149-.357-1.344-.584-.174-1,.407-1.187.835a4.877,4.877,0,0,0-.041,4.522c.435-1.076.888-2.148,1.291-3.235"/><path class="c" d="M451.8,431.831l-2.536,7.129c2.385-1.683,3.013-3.967,2.536-7.129"/><path class="c" d="M414.889,455.234c-.064-1.813,1.536-3.517.218-5.609a6.991,6.991,0,0,0-.218,5.609"/><path class="c" d="M355.089,386.864l-4.476-3.526c.847,2.8,1.981,3.656,4.476,3.526"/><path class="c" d="M387.842,381.685h-.277a3.547,3.547,0,0,0-2.759.722.914.914,0,0,0-.4.983c.157.515.524.312.9.234,1.162-.242,2.337-.425,3.508-.619.383-.063.769-.135.788-.608.026-.627-.454-.685-.915-.707-.282-.015-.564-.009-.845,0"/><path class="c" d="M425.518,391.047a5.3,5.3,0,0,0-.22-.731c-.8,2.729-.666,4.263.464,5.574-.173-1.715.114-3.3-.244-4.843"/><path class="c" d="M425.861,359.512a7.677,7.677,0,0,0,1.124,5.376c.18-2.128.1-3.711-1.124-5.376"/><path class="c" d="M546.029,506.173h-.242v8.864l.242.079Z"/><path class="c" d="M546.4,526.138c.472-2.461-.617-4.815-.428-7.255-.631,2.47-.1,4.863.428,7.255"/><path class="c" d="M403.379,450.38c.8-1.916.873-3.229-.138-4.906a13.423,13.423,0,0,0,.138,4.906"/><path class="c" d="M444.329,431.517c1.256-1.614.691-2.847.542-4.068-.756,1.162-.582,2.384-.542,4.068"/><path class="c" d="M435.814,232.522h.008a6.977,6.977,0,0,0-2.933-1.7c-1.459-.585-2.946-1.111-4.425-1.664a73.511,73.511,0,0,0-17.52-5.091c-.579-.1-1.172-.189-1.765-.269-.192-.029-.389-.049-.584-.074a64.27,64.27,0,0,0-11.005-.533c-.586.018-1.186.055-1.772.093a30.477,30.477,0,0,0-8.064,1.18c-.687.237-1.36.49-2.033.745l-.05.017c-.012,0-.024.008-.036.008-4.937,1.668-9.509,4.138-14.226,6.4-.123.062-.257.124-.38.18l-.132.062q-1.05.48-2.107.946c-2.078.9-4.243,1.655-6.828,2.664a21.655,21.655,0,0,0,8.676-.557,27.1,27.1,0,0,0,9.222-3.513c1.579-.718,3.1-1.422,4.56-2a8.762,8.762,0,0,0,1.025,4.817c.053-.039.1-.058.15-.092.616-.282,1.14.135,1.741.844.2.284.42.618.679,1.025a5.5,5.5,0,0,0,2.227,2l.019.015c.07.043.128.066.186.1a5,5,0,0,0,3.268.7c.477.025,1.169.267,1.32-.351.088-.366-.379-.578-.743-.789a10.419,10.419,0,0,1-1.738-1.524,2.372,2.372,0,0,1-.279-1.682c0-.039.016-.077.017-.106a3.489,3.489,0,0,1,.111-.4c.024-.068.05-.132.074-.2A1.671,1.671,0,0,1,393.1,233c.514-.25,1.2-.037,2.049.4.011.011.035.022.046.031a14.632,14.632,0,0,0,2.814,1.732,11.7,11.7,0,0,0,2.379.819.088.088,0,0,0,.048.012,7.912,7.912,0,0,0,5.007-.011,3.973,3.973,0,0,0,2.358-1.04c0-.01.012-.009.025-.027a.393.393,0,0,1,.06-.055,11.505,11.505,0,0,0,1.213-1c.239-.213.465-.446.692-.665a6.657,6.657,0,0,1,.58-.521.414.414,0,0,1,.043-.03.708.708,0,0,0,.07-.052,2.513,2.513,0,0,1,1.9-.279,1.716,1.716,0,0,1,.773,1.151c0,.032.01.062.01.094a2.831,2.831,0,0,1-.59,1.446,4.114,4.114,0,0,1-.514.574,6.793,6.793,0,0,1-1.292.9c-.126.064-.246.137-.377.2-.291.13-.594.248-.906.36-.791.281-1.791.207-2.378.912a11.266,11.266,0,0,0,4.8.647l.141-.013c.067-.011.143-.009.207-.02a1.442,1.442,0,0,0,.277-.045c.092-.02.177-.051.266-.075a4.609,4.609,0,0,0,3.34-2.58c.025-.036.051-.069.075-.106.012-.009.013-.019.025-.028a23.245,23.245,0,0,0,1.188-2.168c.822.043,1.655.107,2.493.209a5.055,5.055,0,0,0,1.742-.2c.169-.044.338-.069.506-.108a54.753,54.753,0,0,1,6.046-.319,37.373,37.373,0,0,1,4.927.842c.661.152,1.864-.009,1.871.753.005.822-1.26.345-1.838.677-.1.054-.111.21-.148.325l7.9.414q-2.158-1.536-4.493-2.926c-.213-.229-.421-.463-.62-.707"/><path class="c" d="M441.606,222.611c-.772-2.158-2.5-3.1-4.415-3.844-.232-.09-.468-.166-.7-.254l-.033-.017a.012.012,0,0,0-.014-.01,50.235,50.235,0,0,0-14.693-4.4h-.008c-.154-.038-.31-.079-.463-.113a20.4,20.4,0,0,0-10.329.064l4.185.9c.528.1,1.055.188,1.589.282l.363.068c.351.053.691.12,1.047.2.778.154,1.543.311,2.306.49.157.037.319.066.469.106.013.005.027.007.04.011h.011c.633.165,1.262.349,1.885.564a2.4,2.4,0,0,1,.441.008c.646.18,1.287.368,1.924.59a27.271,27.271,0,0,1,4.514,2.3l.02.013c.07.044.137.091.208.134,2.082,1.392,4.073,3.014,6.177,4.208.2.133.4.271.6.4a8.114,8.114,0,0,0,4.25,1.313.084.084,0,0,0,.041.008,9.676,9.676,0,0,0,3.5-.292c-.789-1.394-2.473-1.492-2.918-2.73"/><path class="c" d="M364.6,223.064c3.377-1.756,6.591-3.817,10.049-5.459a63.258,63.258,0,0,1,16.893-4.064c.421-.01.843-.024,1.266-.019a49.423,49.423,0,0,0,8.731-.513c-14.229-.847-28.255-.9-39.766,10.448a2.925,2.925,0,0,0,2.827-.393"/></g><g class="d"><path class="e" d="M609.73,714.788c-.515-.675-.347-1.324.1-2.266,1.581-3.335.211-6.577-2.852-6.538a2.263,2.263,0,0,1-2.291-1.207c-1.293-2.124-3.189-2.443-5.4-.537-1.377,1.19-1.795,1-2.413.432-1.9-1.751-5.288.021-8.453,4.37-.973,1.337-1.3,1.626-1.647.721-1.139-3.008-9.229.457-12.175,6.493-1.057,2.166-1.662,1.8-2.662,1.019-3.726-2.908-8.911-3.954-14.76.684a31.832,31.832,0,0,0-9.528,13.442c-1.007,2.62-1.54,5.057-1.164,6.976a5.171,5.171,0,0,0,.6,1.619,5.256,5.256,0,0,0,.62.838c1.611,1.8,1.544,4.721.167,7.721a67.581,67.581,0,0,0-6.408,24.873,6.819,6.819,0,0,1-.862,3.694c-3.45,5.815-3.043,9.853-2.658,13.818a5.1,5.1,0,0,1-1.175,3.748c-1.133,1.611-2.316,3.242-3.516,4.884-.48.657-.977,1.313-1.465,1.97a194.168,194.168,0,0,1-19.766,22.914c-4.255,4.16-8.54,8.242-12.739,11.843-.447.383-.9.771-1.351,1.153-7.617,6.47-14.916,11.382-21.238,14.016-.508.211-1.181.583-1.607.051-.522-.651.188-1.1.742-1.391a24.671,24.671,0,0,1,2.4-1.092,41.984,41.984,0,0,0,8.924-4.906,44.308,44.308,0,0,0,13.66-16.577,27.59,27.59,0,0,0,1.809-5.013,15.526,15.526,0,0,0,.494-4c-.007-.049,0-.1-.008-.147a7.929,7.929,0,0,1,1.157-4.048,22.126,22.126,0,0,1,1.372-2.171,72.617,72.617,0,0,1,12.576-13.347c2.832-2.4,3.845-2.322,3.486-.3-.258,1.453-.541,2.96-.943,5.109,2.472-3.9,3.269-6.2,3.435-8.2.427-5.145-4.947-3.7-12.16,3.183a56.263,56.263,0,0,0-10.281,12.83,54.253,54.253,0,0,1-6.523,8.582c-.6.68-1.336,1.467-2.073,1.442-.572-.019-.486-.623-.322-1.144.538-1.719,1.158-3.5,1.7-5.233.254-.809.645-1.785-.421-1.686-1.028.095-1.862,1.07-2.686,1.831-1.911,1.763-2.875,3.76-4.628,5.507-.672-1.016-1.192-1.9-1.764-2.782-2.539-3.926-6.442-7.061-13.2-5.676A45.352,45.352,0,0,0,461,816.058c-.458.225-.914.468-1.38.718a48.277,48.277,0,0,0-4.737,2.905c-5.817,4.032-9.923,8.807-10.761,13.508-.044.243-.1.509-.125.762a22.488,22.488,0,0,1-.617,3.275C440.651,847.5,432.885,855.952,426,863.4c-3.688,3.984-9.021,5.988-13.775,7.027-2.681.586-5.177.48-6.747-1.358a76.521,76.521,0,0,1-6.3-8.53l-.237-.368c-.959-1.51-1.895-3.058-2.76-4.625h-.012c-.6-1.079-1.207-2.177-1.721-3.281-.06-.128-.13-.263-.2-.4-.347-.716-.672-1.447-.98-2.182-.127-.3-.267-.607-.4-.909-1.589-3.514-3.677-6.95-9.138-8.382a1.915,1.915,0,0,1,1.628-.493c7.685-.2,14.675,1.01,21.682.454,14.3-1.136,26.89-9.45,38.39-17.4a39.3,39.3,0,0,0,11.224-11.137,22.736,22.736,0,0,0,1.806-3.494c.251-.619.473-1.246.662-1.871a22.427,22.427,0,0,0,.921-5.019c.013-.121.02-.182.033-.3.142-2.674-2.769-3.617-6.543-2.246-.848.307-1.789,1.169-3.132.768,1.719-1.556,3.521-3,4.995-4.528,4.037-4.18,7.324-8.219,9.314-12.129.328-.643.63-1.293.882-1.931a14.715,14.715,0,0,0,.917-8.824c-1.764-7.638-8.8-10.968-18.783-11.2a34.471,34.471,0,0,0-13.985,2.668,11.039,11.039,0,0,1-6.037.928c-8.369-1.062-15.779-3.172-24.76.454-1.037.419-2.042,0-3.076-.142-7.339-.987-14.979-.9-21.882,1.494a31.459,31.459,0,0,0-5.458,2.5c-1.356.785-2.123.948-2.991-.371-.011-.021-.035-.052-.046-.073a15.932,15.932,0,0,0-3.077-3.673c-5.465-4.65-1.418-11.394,5.327-12.678.992-.188,2.331-.144,2.9-1.082-9.826-.878-16.464,2.925-17.014,9.356-.385,4.5-2.724,6.747-7.7,7.36-.728.09-1.521.146-2.36.172-1.281.039-2.584.045-3.824.023-.542-.01-1.081-.023-1.6-.052a6.383,6.383,0,0,1-1.779-.351,3.569,3.569,0,0,1-1.99-1.559c-.707-1.265.373-2.261,1.3-3.12a5.89,5.89,0,0,1,5.553-1.357,12.335,12.335,0,0,1,1.35.385c.072.025.145.051.23.078.7.263,1.272.9,2.156.932a2.036,2.036,0,0,0,.727-.1,8.543,8.543,0,0,0-.22-1.129,7.542,7.542,0,0,0-.876-2.107,6.141,6.141,0,0,0-2.287-2.144,9.556,9.556,0,0,0-2.423-.915c-.312-.075-.624-.149-.934-.214-3.808-.8-7.248-.83-10.408,1.383-.481.337-.983.666-1.5.975a22.039,22.039,0,0,1-3.321,1.631,1.068,1.068,0,0,0-.154.062,5.5,5.5,0,0,1-4.865-.73,7.138,7.138,0,0,1-.9-.7c-1.833-1.689-2.035-3.444-1.361-4.8a4.047,4.047,0,0,1,.325-.549c1.525-2.169,4.629-2.2,8.857-.976,7.513,2.171,10.889-1.824,8.851-6.769-1.371-3.325-.061-5.435,2.509-7.546.675-.555,1.9-.977,1.316-2.411-1.732,1.049-3.07,2.263-4.7,2.853-2.706.977-4.223,2.34-5.119,4.5-1.331,3.21-3.508,4.031-8.494,2.035-1.642-.656-2.472-1.332-2.35-2.789.253-3.016-2.249-5.862-6.791-8.376-7.324-4.054-11.507-4.835-14.671-1.78-2.565,2.477-2.3,6.879-3.5,10.278-.995,2.827-8.461.718-12.435-3.631-2.754-3.013-2.965-5.387-1.936-6.884,1.045-1.519,4.006.718,6.471,2.092,2.169,1.209,2.239,2.845,3.726,4.192,1.1-1.989-.842-5.543-5.2-9.011-5.471-4.358-10.98-7.371-16.164-8.273-2.837-.494-5.514-.495-5.927,1.734s2.094,4.379,4.6,6.374c3.648,2.9,4.793,5.789,4.495,8.19-.294,2.363-1.528,4.032-5.462,3.228a6.194,6.194,0,0,0-4.133.378c-1.19.629-2.6.026-4.086-.868-1.545-.931-2.829-1.792-2.97-3.294a31.255,31.255,0,0,1,.171-6.9c.125-.988.183-2,.231-3.023a.887.887,0,0,0-.7-.889c-.566-.163-.84.164-.812.46.347,3.638-1.913,6.122-4.069,8.778-.342.421-.188,1.141-.333,1.7-1.207,4.658-3.722,9.459-9.208,8.964-2.678-.242-4.253.329-4.668,2.63a19.821,19.821,0,0,0,3.657,15.572,9.122,9.122,0,0,1,1.722,4.286c.323,1.886-.544,2.434-2.5,1.843-5.044-1.528-9.991-5.467-14.813-10.242-2.066-2.047-2.323-3.09-2.148-4.76.41-3.935-1.795-8.2-5.86-12.083-2.872-2.744-4.892-3.239-7.087-4.119-1.262-.506-2.723-1.552-4.488-4.688a7.422,7.422,0,0,1-1.176-5.215c.054-2.67-.922-4.553-3.444-6.329-3.066-2.159-4.85-1.254-6,.582-2.588,4.128-7.74,2.482-14.448,3.4-3.154.433-6.37.167-8.221,1.124-4.659,2.41-7.6,6.157-3.149,17.8a37.354,37.354,0,0,0,9.549,14.569,12.127,12.127,0,0,1,3.051,3.847c-5.762-.75-9.986,2.814-11.613,7.44a8.917,8.917,0,0,0,.948,6.87c1.335,2.545,4.78,3.712,5.95,2.584,2.2-2.118,5.01-.185,7.74,2.064a16.135,16.135,0,0,1,3.1,3.364,9.281,9.281,0,0,1,1.72,6.939c-.105.636.044,1.789-.633,1.552a.552.552,0,0,1-.16-.084c-.981-.547-1.326-2.033-1.874-3.034-6.15-11.22-14.673-9.909-19.965-6.835a7.356,7.356,0,0,0-3.1,3.06c-1.779,3.524,1.556,12.757,7.112,13.944.926.2,1.626.361,1.406,1.467-1.77,8.875,10.065,17.126,16.13,19.7.3.126.606.262.9.405,1.872.891,3.575,2.107,5.4,5.816.339.688.675,1.449,1.02,2.321a16.788,16.788,0,0,0,1.51,2.58c5.4,8.16,11.436,18.129,20.128,23.222,3.783,2.216,5.262-.056,4.532-4.868-.361-2.38-.874-4.9-1.37-7.435-1.064-5.428.08-7.938,3.112-8.67,1.2-.289,2.207.288,3.841,2.316a52.713,52.713,0,0,0,10.116,9.924c1.412,1.025,2.909,2.192,4.429,3.457.189.157.359.306.535.467,2.845,2.6,3.409,5.951,4.126,8.723.934,3.615-2.112,5.126-6.146,5.688-.3.042-.619.087-.929.122a29.352,29.352,0,0,0-4.1.713c-.751.2-1.479.45-2.2.649-3.006.828-5.637,1.279-7.744,2.235a10.223,10.223,0,0,0-1.8,1.014,5.115,5.115,0,0,0-1.1,1.064c-.769,1.042-1.011,2.649-.166,4.938,1.007,2.728.369,2.929-1.542,2.036-4.1-1.913-4.728-1.687-3.781,3.275.3,1.575.187,2.548-.75,2.621-1.569.122-3.3.047-5.529-2.2-2.986-3.016-4.214-2.8-4.519-.557-.149,1.1-.453,1.849-.947,2.113s-1.2.078-2.152-.672a15.709,15.709,0,0,1-1.961-1.96c-.076-.087-.176-.2-.262-.306a3.04,3.04,0,0,0-.743-.633c-1.425-.934-2.571-2.636-3.872-5.653a49.964,49.964,0,0,0-6.753-11.444c-4.65-5.733-7.662-6.081-9.165-2.664-.412.936-.428,2.31-2.8.039-4.225-4.042-7.115-2.778-7.65.963a39.17,39.17,0,0,0-.217,5.131q0,.906-.067,1.77a7.365,7.365,0,0,1-1.5,4.454,5.808,5.808,0,0,1-.822.753c-1.463,1.121-1.706,2.7-1.052,4.731.224.695.9,1.575.112,1.936-2.024.928-2.309,3.147-2.428,5.687-2.52-3.26-5.513-3.336-8.333-4.4-3.03-1.139-5.965-3.723-5.7-7.935a16.4,16.4,0,0,0-.047-2.665,27.565,27.565,0,0,0-3.065-9.324c-1-2.054-2.2-4.275-3.474-6.662-3.194-5.964-7.526-14.373-11.462-15.847-4.107-1.538-5.213,4.519-4.369,13.669.283,3.074-.246,3.186-1.652,1.99-5.632-4.792-8.764,2.754-7.784,14.894.3,3.656-.26,4.286-1.532,4.721-4.636,1.585-5.839,8.139-5.16,17.119.167,2.214-.011,3.429-1.21,4.521-3.543,3.222-5.239,6.836-3.845,10.523a3.834,3.834,0,0,1-.314,3.534c-1.568,2.91-2,6.23.9,8.3,2.226,1.589,2.66,3.308,2.849,5.523a34.739,34.739,0,0,0,8.536,20.013c9.11,10.606,19.867,19.243,31.134,27.031,14.388,9.945,23.021,29.27,31.292,44.318,2.622,4.772,5.37,9.838,8.378,13.29,7.177,8.239,13.187,10.729,18.049,8.851a10.939,10.939,0,0,0,1.891-.958,15.424,15.424,0,0,0,3.558-3.242c1.911-2.3,3.777-5.291,2.991-8.648a20.13,20.13,0,0,1,.618-12.012c.183-.473.173-1.111.985-.746,3.229,1.448,6.639,1.558,10.339,1.319a5.554,5.554,0,0,1,2.305,1.059c.355.224.705.433,1.067.638a23.017,23.017,0,0,0,5.7,2.3,20.858,20.858,0,0,0,3.047.532,9.625,9.625,0,0,1,5.037,2.168c3.706,2.75,8.011,4.9,10.842,4.716a24.363,24.363,0,0,1,10.851,1.311c.532.193,1.089.421,1.664.68a1.21,1.21,0,0,0,1.2-.031,2.411,2.411,0,0,1,.182-.164c1.969-1.8,6.483-.216,9.989.017,6.7.445,12.021-1.209,17.589-2.725,4.218-1.148,8.069-2.966,12.192-4.564a131.411,131.411,0,0,1,31.167-7.3c2.777-.326,5.642-.656,8.475-.9,14.027-1.221,29.163-1.284,42.182-6.7.576-.24,1.17-.518,1.754-.806,16.333-8.061,31.318-19.131,46.562-29.046a12.2,12.2,0,0,1,4.174-2.19.089.089,0,0,1,.051,0c10.492-1.979,18.445,2.072,25.351,5a4.961,4.961,0,0,1,1.627,1,2.168,2.168,0,0,1,.233.282c.727,1.056.1,2.745-1.591,5.241a47.835,47.835,0,0,1-7.909,9.526c-15.417,13.1-38.138,25.414-59.245,25.61-.962.009-1.826,0-2.56.013a18.943,18.943,0,0,0-1.936.112c-2.773.343-3.5,1.687-5,5.792a5.244,5.244,0,0,0-.288,1.016c-1.462,10.144,1.523,18.694,11.426,22.336a16.564,16.564,0,0,0,8.3.853,4.846,4.846,0,0,0,3.645-2.087c5.243-7.134,16.2-10.634,20.319-6.292,2.472,2.6,2.22,6.233,1.8,9.921-.124,1.078-1.16,2.873.382,3.034,1.393.146,2.636-1.512,3.765-2.425,9.771-7.891,17.231-15.132,24.226-25.238,9.822-14.188,19.6-31.11,23.692-48.76,1.49-6.435,1-10.939-1.8-13.336l0-.019c-1.854-1.578-4.722-2.22-8.556-2.441-4-.231-8.34-.01-13.5.2-.223.009-.459.018-.681.021.879-.55,1.783-1.142,2.674-1.751a119.61,119.61,0,0,0,17.354-14.937,121.715,121.715,0,0,1,9.447-9.148c.591-.487,1.16-1,1.693-1.518,2.38-2.322,4.079-4.828,4-6.588a4.9,4.9,0,0,1,.663-2.473,22.257,22.257,0,0,1,3.584-4.549c.892-.934,1.772-1.883,2.629-2.834a40.874,40.874,0,0,0,4.127-5.233c.349-.55.721-1.1,1.089-1.62a48.674,48.674,0,0,1,11.66-11.653c1.007-.7,2.019-1.356,3.017-1.939,5.442-3.175,8.491-.235,6.1,4.11-4.893,8.889-12.43,16.381-19.4,23.48a48.8,48.8,0,0,0-8.289,10.578c-4.314,8.008-5.97,14.323-4.627,18.564a4.072,4.072,0,0,0,.712,1.362,3.076,3.076,0,0,0,3.068.953,19.7,19.7,0,0,0,6.335-2.8c.106-.062.213-.124.333-.2.756-.45,1.574-.97,2.42-1.519,1.316-.852,2.012-1.159,1.578.114-1.776,5.192-4.759,10.534-11.133,16.806a76.679,76.679,0,0,0-12,15.159c-3.834,6.344-6.284,11.888-7.251,16.7a63.9,63.9,0,0,0-1.448,9.55,15.712,15.712,0,0,0,.066,2.1,8.742,8.742,0,0,0,.611,2.584c.984,2.278,3.713,1.763,7.966-1.376a44.943,44.943,0,0,0,6.27-5.774c.057-.059.113-.118.171-.188a.185.185,0,0,1,.042-.039c2.717-2.985,4.017-3.167,4.189-1.579.239,2.205-.65,4.98-3.71,8.943a30.336,30.336,0,0,0-3.407,5.264,9.079,9.079,0,0,0-.611,1.67,3.26,3.26,0,0,0,.013,1.913c1.262,3.29,4.711,3.606,11.274,1.125a6.946,6.946,0,0,1-.994-6.5c1.8-5.654,3.559-12.173,11.588-16.944a2.338,2.338,0,0,0,1.382-2.233c.519-4.726,3.224-10.437.866-14.085,4.415.233,9.023-.119,13.337-.095a13,13,0,0,0,12.431-18.357,18.87,18.87,0,0,0-1.152-1.886c-1.238-1.993-2.641-4.1-3.817-6.465s-2.349-5.074-2.024-7.975a75.646,75.646,0,0,1,9.539-28.448c3.833-6.34,8.342-13.134,12.528-20.268a33.766,33.766,0,0,0,4.963-15.755c.2-4.767-2.521-5.117-7.279-2.016-1.379.9-2.779,1.813-4.324,2.682-.631.355-1.285.694-1.975,1.02a.461.461,0,0,0,.048-.089,39.15,39.15,0,0,0,3.04-6.864c1.362-4.68-.15-6.824-4.579-7.192a22.781,22.781,0,0,0-9.829,1.087,33.07,33.07,0,0,0-10.292,6.628l-.014.016c-1.544,1.372-3.1,2.892-4.651,4.5-.014-.093-.029-.176-.044-.268-.067-1.151,1.211-2.631,1.55-3.819,1.483-5.2-1.584-7.484-.894-12.224.163-1.122-.14-1.972.541-3.432,1.1-2.35.934-3.854-1.5-3.3-1.225.277-1.584-.178-1.341-1.257a13.868,13.868,0,0,0,.2-1.379,5.527,5.527,0,0,0-.252-2.4,3.256,3.256,0,0,0-2.086-1.96c3.939-3.066,7.492-5.428,10.653-6.378,2.425-.728,4.82-.41,5.515,1.106,4.021,8.778,16.947,16.049,26.55,8.081a64.575,64.575,0,0,0,6.452-6.16c.794-.872,1.574-1.789,2.335-2.682,5.617-6.593,11.4-15.778,13.6-24.334.932-3.616,2.085-7.331,3.189-10.922,5.358-17.435,12.151-34.759,16.882-52.474,2.4-8.993,5.035-17.87,5.925-26.951.747-7.617.034-15.679-4.226-21.269m-89.8,80.6c-5.756,5.179-11.419,10.291-16.133,17.1,3.721-8.471,11.03-16.107,16.133-17.1M181.669,814.841c-4.392-3.826-6.967-7.479-5.62-11,.808-2.112.174-3.215-2.455-3.634a6.907,6.907,0,0,1-5.955-8.245c.427-2.417,1.884-3.716,3.793-5.118,2.82-2.07,6.535-3.679,10.309-.671,4.291,3.422,6.66,9,7.981,14.262.3,1.2.1,2.054-1.123,1.062-1.53-1.238-.936-1.79-.938-2.538a14.253,14.253,0,0,0-4.163-9.046c-2.462-2.276-5.952-2.332-7.376-.669-1.109,1.294-1.019,2.8-.125,4.579a62.638,62.638,0,0,1,3.987,9.546c1.075,3.466,3.765,7.127,6.624,11.253a9.549,9.549,0,0,0,3.953,3.418,14.737,14.737,0,0,1,4.156,3.075c-2.737,1.9-7.692-1.606-13.048-6.271m12.734-11.61a5.457,5.457,0,0,0-1.79.948c-1.191-3.331-1.337-5.181-.343-6.23,1.961-2.071,1.045-7.312-1.986-12.265-3.184-5.2-9.7-8.833-12.471-7.163-1.742,1.052-2.8.358-3.622-1.075a5.466,5.466,0,0,1-.244-4.551c1.423-4.271,5.079-7.432,9.925-6.533a2.849,2.849,0,0,1,2.119,1.436c.677,1.215-.187,1.2-.623,1.433a4.238,4.238,0,0,0-2.673,3.675c-.138,2.784,2.261,5.593,5.006,6.63,5.439,2.056,6.955,4.952,8.94,12.8,1.795,7.1.89,10.422-2.238,10.9m21.8-14.41c.921-1.148,3.871,1.409,3.753-1.728.007-.058,1.37,1.58,2.039,2.145a37.013,37.013,0,0,0,11.51,6.506c2.3.877,3.263-1.533,1.84-4.779-1.459-3.328-.652-3.93,1.651-3.869a10.573,10.573,0,0,0,6-2.02c.608-.39,1.336-1.2,2.152-.365a1.4,1.4,0,0,1-.584,2.36,9.967,9.967,0,0,1-3.48.768c-3.855.313-4.962,1.78-2.713,5.769,1.37,2.43,1.189,3.527-.324,4.607-2.665,1.9-5.613,2.253-9.922-1.9-4.361-4.2-6.713-3.923-8.937-3.412-.5.115-.738.9-1.854-.332-.9-1.617-1.734-3-1.131-3.755M223.7,833.9c-4.258-.077-5.518,3.049-4.026,10.165.432,2.057.794,4.071,1.094,5.985.83,5.288-.664,6.767-5.04,3.216-4.354-3.533-8.779-9.022-13.3-15.542-.721-1.04-1.461-2.075-2.178-3.135-4.966-7.333-5.354-8.766-2.631-9.447.9-.226,1.309.309,2.578,3.05,4.641,10.029,9.75,15.8,12.72,14.2a5.445,5.445,0,0,1,2.475-.76c2.08-.056,2.289-2.884,1.547-6.769-.9-4.724.134-6.7,1.862-7.849.408-.271.942-.534,1.9.71a40.549,40.549,0,0,1,3.657,5.485c.539,1.019-.287.7-.657.693m4.31-25.966c-.541-.333-1.089-.659-1.622-1.042-2.638-1.891-5.073-5.861-6.505-9.278-1.287-3.073,1.143-1.67,2.035-2.019,1.62-.633,3.809.588,7.056,3.664,4.556,4.315,7.823,3.029,10.343.546,1.382-1.363,2.623-2.436,5.392-1.746a9.6,9.6,0,0,0,2.989-.083,8.53,8.53,0,0,1,9.125,5.212c2.616,5.629,7.344,9.684,14.509,13.288a6.961,6.961,0,0,1,1.542.948,27.787,27.787,0,0,0,15.187,7.468,5.1,5.1,0,0,1,3.248,2.037c4.293,5.535,7.709,10.734,7.558,14.785-.322,3.156-1.792,3.238-6.295.4-1.43-.9-2.909-1.938-4.254-2.131-3.647-.522-6.052-3.184-7.826-6.078a37.361,37.361,0,0,0-11.8-12.341,7.647,7.647,0,0,1-1.671-1.419c-6.809-8.239-14.505-10.987-21.256-10.1-6.337.83-11.979,1.446-17.758-2.111m50.841,49.352c-1.534-1.645-1.156-2.052-.177-2.254,2.347-.485,5.878,1.649,7.977,4.965a21.245,21.245,0,0,1,3.711,13.44c-.257,3.857-4.176,5.3-11.313,3.357-1.375-.375-3.365-.824-4.076-2.673-.768-2,1.26-1.23,3.056-.322,2.762,1.4,3.66.451,4.778-.206,4.67-2.746,3.335-8.487-3.956-16.307m-8.482,20.687a28.6,28.6,0,0,1-2.722,9.485c-1.313,2.573-3.837,4.037-8.16,3.611-6.985-.689-13.84-1.065-19.916.121,4.933-3.747,11.248-5.5,17.889-6.5,3.118-.471,5.434-1.488,6.449-3.818,1.251-2.872,2.611-5.652,4.008-8.411a12.069,12.069,0,0,1,1.693-2.335c.4-.465,1.208-.284,2.217.648.811.747.944,1.379.432,1.576-2.179.841-1.625,3.525-1.89,5.626m-41.976-67.858a20.052,20.052,0,0,0,10.385,2.929c.441-.007,1.26.034,1.264.431.039,3.384,3.9,1.937,5.691,3.879-6.114-1.487-11.391-1.019-17.34-7.239m17.519,3.024c-.868.017-1.794-.143-2.659-.16,4.707-1.752,10.174-1.065,16.431,2.69,1.282.769,3.311,1.909,2.714,3.1-.585,1.165-2.238-.388-3.4-1.1-4.6-2.825-8.982-4.61-13.084-4.528m-19.643,61.9c2.445-3.169,6.665-4.572,12.2-5.236,6.943-.833,13.242-1.571,17.07-5.261a33.571,33.571,0,0,0,6.6-8.666,41.016,41.016,0,0,0,4.856-17.5,15.536,15.536,0,0,0-1.286-6.861c-.955-2.245-.251-2.734,2.4-1.657a11.028,11.028,0,0,0,1.059,4.166c2.745,5.73,3.469,10.564,1.42,14.085-1.151,1.979-1.692,4.439-2.526,6.657a6.463,6.463,0,0,1-3.7,4.109c-3.1,1.232-3.579,4.589-5.876,6.553-4.034,3.451-8.866,5.881-16.169,6.667-3.705.4-6.917,2.148-10.122,2.848-2.7.59-3.228,2.979-1.132,5.368.527.6,1.511,1.13,1.17,1.811-.313.626-1.335.293-2.092.085-3.95-1.082-5.646-4.861-3.867-7.166m-12.891,11.991c2.186,1.93,3.908,1.8,5.844,2.146-.6,1.833-2.357,1.785-3.818,2.051-1.572.285-4.371-3.284-6.01-2.534.222-3.214.783-4.489,3.984-1.663M184.051,862.7c1.678-2.88,9.436,4.9,12.962,13.334.322.767.772,1.708.474,1.834s-.812-.674-1.22-1.446a28.083,28.083,0,0,0-4.5-6.462c-2.633-2.731-4.725-3.861-6.2-3.068-.957.516-1.794,1.419-3.922-.021a34.477,34.477,0,0,0,2.4-4.171m-10.8.911c.241-2.164,1.561-3.008,3.931-1.846a3.548,3.548,0,0,1,1.841,1.673c.48,1.1-.389.762-.772.9-2.675.953-4.884,3.014-4.205,7.711.155,1.069-.351,1.2-1.822.8.411-3.7.616-5.545,1.027-9.241M287.067,1004.6c-.325,1.724-1.684,2.71-3.1,3.607-.688.437-1.689.74.952,1.947,1.946.889,1.494,1.823.689,2.153a11.054,11.054,0,0,1-6.368.6c-2.38-.419-3.584.114-2.071,2.774,1.495,2.627-1.053,2.24-2.545,2.263-3.341.05-7.123-.537-10.234-.122-2.339.311-5.809-2.132-8.709-4.048-1.45-.958-2.447-2.512-.222-2.132.56.1,1.424.2,1.436-.087.164-4.131,5.766-1.311,9.606-.7,1.017.161,2.213.545,2.577-.363-2.888-1.985-4.825-1.1-7.7-2.793a5.48,5.48,0,0,1,4.693-1.983c2.539.135,2.789-1.416,2.819-3.551.042-3.043-1.255-7.13,2.277-8.05,1.674-.436,1.62-2.144-.159-4.495a26.246,26.246,0,0,1-4.621-8.576.517.517,0,0,0-.115-.307c-6.17-6.121-4.178-10.146-7.334-15.488-2.332-3.947-5.916-7.7-7.919-11.469-2.118-3.982-3.449-7.854-6.4-11.671a2.809,2.809,0,0,1-.236-3.365c.7-1.365-.152-3.005-2.2-4.535-3.4-2.534-6.394-5.28-10.215-4.221-1.55.429-2.824-.881-3.768-1.826a18.309,18.309,0,0,0-5.013-3.262c-3.348-1.715-6.721-4.846-9.468-9.766-1.523-2.727-3.291-5.886-5.559-7.611a3.2,3.2,0,0,1-.787-.958c-2.567-5.46-5.76-8.352-8.608-12.641-.76-1.146-1.9-2.668-2-2.2-.659,3.042-6.177-6.841-6.478-3.108-.141,1.751-1.366,1.257-2.634.824-.923-.316-1.733-.856-2.921-3.008-1.668-3.021-3.121-3.987-4.361-3.68-.815.2-1.8.152-2.672.335-.366.078-1.07.018-1,.418.665,3.648-1.756,4.364-1.453,7.665.207,2.25-.235,3.767-1.995,3.829-.691.025-4.306-4.95-4.94-6.658-1.367-3.681.677-6.063,4.1-3.921,1.923,1.2.862-.478.51-1.383-1.744-4.483-1.565-6.65.6-7.47.792-.3,1.613-.589,2.836,1.465.386.624.97,1.537,1.481,1.484s-.008-1.022-.234-1.683a7.545,7.545,0,0,1-.019-5.889c.487-1.1,1.74-1.06,3.257.092,1.869,1.42.166,2.164,2.1,4.379,1.1-2.477,2.849-4.113,6.152-2.287.936.517,2.014-.625,3.689,4.06.319.893,1.179.909,1.785,1.329,6.184,4.278,12.537,10.513,20.156,18.475.117,1.025-1.407-.893-1.116.537a21.415,21.415,0,0,0,5.654,4.665c8,5.154,15.618,4.325,24.132,11.523a48.025,48.025,0,0,0,4.788,3.563,31.206,31.206,0,0,1,13.075,16.373,4.248,4.248,0,0,0,2.623,3.12c1.369.72,2.388,2.285,3.386,3.528a36.789,36.789,0,0,1,6.594,12.806c.514,1.609.111,3.426,3.8,5.268.5.247,1.167,1.7,1.6,2.54,2.939,5.8,4.178,10.887,3.456,15.151-.164.969-.364,1.932,1.611,3.436,1.038.79.929,1.647,1.169,2.425a46.344,46.344,0,0,1,1.573,22.676M407.895,765.436c8.519-1.062,15.718.458,22.967,2.014a9.2,9.2,0,0,1,1.207.452,7.312,7.312,0,0,0,.994-.064c-.988-1.763.182-2.517,2.721-3.229,9.949-2.788,30.758-1.117,27.938,13.627-.74,3.869-3.178,7.918-6.428,11.97a73.471,73.471,0,0,1-10.316,10.145c1.386-2.222,2.93-4.488,4.131-6.691,3.56-6.531,6.058-12.855,3.853-17.694-2.11-4.633-6.054-7.542-15.842-3.786a3.507,3.507,0,0,1-2.158.115,28.6,28.6,0,0,0-10.438.1,4.406,4.406,0,0,1-3.847-1.116c-3.6-2.8-8.093-3.388-13.529-1.953-2.877.759-2.8-1.816-3.584-2.849-.711-.933,1.436-.929,2.331-1.04m-4.418,53.451c-1.7-2.9-1.423-5.813-.069-8.73a19.89,19.89,0,0,1,3.884-5.318c3.311-3.446,6.406-7.3,13.458-7.183-.986.716-2.164,1.62-3.394,2.423a32.279,32.279,0,0,0-10.043,10.644c-1.5,2.381-.763,4.743,1.768,6.048a10.874,10.874,0,0,0,5.425,1.383c-.188-.855-1.45-1.542.89-2.223a5.62,5.62,0,0,0,3.613-3.745,2.222,2.222,0,0,1,2.31-1.774c1.239-.028,1.737.463,1.4,1.487a16.759,16.759,0,0,1-2.477,5.208c-3.755,5-9.287,8.576-15.272,11.324,1.984-4.023.157-6.719-1.495-9.544m7.351-29.661c-.248.8-1.112.957-1.944.872a1.3,1.3,0,0,1-1.241-.88c-.666-2.039,3.655-6.252,6.369-6.383.523-.06,1.091-.089,1.226.355a1.441,1.441,0,0,1-.665,1.639,7.985,7.985,0,0,0-3.745,4.4m-5.54,2.111a12.8,12.8,0,0,0-8,.431c-1.874.675-3.554.037-5.151-.734-3.381-1.633-6.83-2.528-10.42-.366-1.051.634-1.666.225-1.974-.544-.317-.794-.748-1.8.933-2,6.651-.806,13.22-3.432,19.446.147,1.66.954,4.86-.126,5.165,3.066m-31.177-21.146c5.541-2.915,12-3.844,18.518-3.716a34.883,34.883,0,0,1,10.745,1.485c1.212.423,3.184.82,2.546,2.321-.491,1.157-1.909,1.8-3.8,1.471-4.338-.762-8.926.614-13.586-.24-5.578-1.021-10.383.675-14.934,2.67-1.818.8-1.837.095-2.1-.811-.489-1.672,1.192-2.432,2.615-3.18m-35.537,77.394c-1.908.152-2.8-.33-3.18-1.718a30.075,30.075,0,0,1-.3-13.865c.383-1.984,3.962-3.588,7.989-3.546a76.055,76.055,0,0,0,10.256-.766,11.324,11.324,0,0,0,7.577-3.759c-1.294-.017-1.952-.041-2.6-.035-2.061.02-3.477-.7-3.4-2.214.081-1.674,2-1.17,3.406-1.081,4.018.255,5.522-.491,4.94-3.424-.872-4.4,2-6.73,7.066-8.168,1.047-.3,2.111-.608,3.181-.892,8.393-2.229,11.49-6.889,8.957-13.336-.478-1.217-1.4-2.406.633-3.3,1.861-.822,3.683-1.144,5.546.078,3.664,2.4,7.342,3.218,11.8,1.482,3.644-1.42,4.726-.58,4.923,2.692.142,2.363,2.4,3.055,4.582,3.886a40.326,40.326,0,0,0-7.444,7.428c-3.236,4.486-3.889,9.048-.618,13.759a9.137,9.137,0,0,1,1.78,4.227c.247,2.383-1.127,3.974-3.934,4.066-5.217.172-10.8-.2-15.625-2.953-5.734-3.273-11.457-2.582-17.054-.1a57.811,57.811,0,0,0-22.076,18.179c-1.505,2.181-3.407,3.125-6.4,3.363m13.86,9.165a42.534,42.534,0,0,0,3.76,15.387,10.471,10.471,0,0,1,.449,1.9c-10.972-6.221-16.941-19.977-8.042-30.609a55.057,55.057,0,0,1,18.061-14.74c5.611-2.765,10.074-4.027,17.112-.4a27.154,27.154,0,0,0,21.99,1.746,37.355,37.355,0,0,0,17.344-13.327c.455-.637.813-1.617,2-1.543,4.928.309,9.618-3.438,14.382-6.1,3.755-2.1,7.182-4.909,11.054-6.861,5.567-2.8,7.831-1.964,6.57,2.221-.857,2.839-1.559,5.718-4,8.878-.326-.017-.717.067-.835-.05-4.594-4.547-14.056.111-20.3,6.129-9.654,9.3-21.509,18.3-36.152,16.254-3.791-.53-8.14-.546-12.23-1.055-13.328-1.658-31.8,7.809-31.163,22.172m134.762-32a25.1,25.1,0,0,1,4.869-8.558c-.679,2.192-1.256,3.812-1.633,5.352-.321,1.311-.353,2.559.981,2.8.481.089.972.2.487.96-.454.712-1.148.829-1.781,1.116-2.622,1.192-3.7.82-2.923-1.674m4.092,10.544c2.263-4.284,3.874-8.519,5.98-12.925.745-1.559,2.016-3.313,3.345-5.5.4,4.718.364,9.381-4.679,16.4a37.555,37.555,0,0,1-8.068,8.439c-5.222,3.865-10.331,5.019-14.813,7.745-1.679,1.02-3.426-.2-5.354-.129,5.062-3.509,9.986-4.44,15.84-6.754a14.6,14.6,0,0,0,7.749-7.272M435.2,855.873c2.948-4.1,5.65-8.265,8.24-12.392,2.207-3.519,3.493-6.868,3.551-10.02.085-4.626,3.959-9.193,9.809-12.949a40.657,40.657,0,0,1,16.853-6.463,8.485,8.485,0,0,1,7.9,3.4,13.778,13.778,0,0,1,2.961,5.817c.9,4.224-3.5,9.164-9.03,9.4-2.1.09-2.089-.472-1.462-1.813a7.4,7.4,0,0,0-.771-8.228c-1.108-1.388-2.489-2.059-5.157-1.114-6.314,2.238-10.57,6.682-13.863,11.771-4.211,6.507-6.361,13.131-12.41,19.809a32.995,32.995,0,0,1-3.846,3.916c-6.057,4.871-11.37,10.227-18.084,14.184-6.617,3.9-6.393,4.221-10.719.822,10.835-.636,19.917-7.648,26.026-16.145m72.182,51.789c-.307,1.736.03,3.111-3.175,6.047a2.252,2.252,0,0,0-.491.7c-.427,1.131.012,2.144-2.005,3.63-1.888,1.392-3.957,2.887-5.527,3.19a8.764,8.764,0,0,0-2.085.822,5.129,5.129,0,0,0-1.247,1.149c-.55.762-.186.83.264.752,2.567-.446,1.994.858-.56,4.149-2,2.578-3.389,5.1-6.133,7.386-1.359,1.131-1.058,2.093-1.547,3.167-3.27-.114-10.419,3.534-13.16,6.809a4.229,4.229,0,0,0-.819,1.514,4.759,4.759,0,0,1-5.636,3.658c-3.045-.721-6.167-1.965-9.754.009a2.193,2.193,0,0,1-1.253.161c-3.036-.632-5.69.122-6.979,3.4-.146.371-.579.791-1.012.694-.4-.088-.866-.4-.833-.715.251-2.493-2.466-2.42-4.756-2.627-2.933-.266-5.979-.362-8.818-.693-3.82-.445-6.526-1.879-7.15-4.947-.312-1.533-1.391-2.44-3.466-2.678-5.261-.6-7.641-3.643-8.85-7.438a10.176,10.176,0,0,0-2.406-3.648c-3.08-3.426-4.988-7.938-3.838-13a24.532,24.532,0,0,0,.318-7.811,17.948,17.948,0,0,1,.6-6.171,9.128,9.128,0,0,1,3.455-5.1c1.286.626,1.074,2.345,3.546,2.1-.069-2.026-.707-3.745-.512-5.746a21.467,21.467,0,0,1,4.806-11.822c1.178-1.491,2.114-3.522,4.784-2.077a20.325,20.325,0,0,1,4.935-10.337c2.877-3.474,6.456-6.456,11.331-7.014,1.35-.154,1.964-1.089,2.7-1.8a56.584,56.584,0,0,1,8.537-6.881c2.479-1.6,5.187-2.746,7.342-2.582a13.092,13.092,0,0,0,8.033-1.9,11.343,11.343,0,0,1,2.823-.752,9.134,9.134,0,0,0-2.487,2.933c-.544,1.376-1.97,1.974-3.6,2.394a8.273,8.273,0,0,0-2.563.742c-2.449,1.642-4.713,3.865-7.274,2.161-.506-.337-2.292.617-2.773,1.382-1.251,1.989-3.9,3.9-4.8,5.669a30.422,30.422,0,0,1-5.471,7.19c-.252.262-.572.61-.581.809.1,3.221-2.712,6.467-5.826,9.858-1.073,1.17-1.573,2.431-3.248,3.543-1.749,1.162-2.619,2.813-1.749,3.44,1.343.969.444,2.995,1.576,4.038.793.73-.571,2.145-1.628,3.3-1.672,1.829-2.51,3.609-1.495,4.726,1.91,2.1,1.068,5.622,2.74,7.917,1.169,1.6,2.255,3.083,4.582,3.7,3.7.975,3.914,1.5,1.558,5.314-1.393,2.256-.294,3.175,1.749,3.206,4.771.071,7.024,1.718,6.235,5.978-.581,3.138,2.816,4.161,7.028,3.594,1.4-.19,2.806-.462,2.973.989.234,2.039,2.192,2.169,4.61,1.305,1.46-.521,2.482-.69,3.587.19,1.609,1.281,3.819,1.019,5.909.769,1.89-.227,3.622-.974,5.148.426,1.73,1.587,9.682-3,11.875-6.386a6.568,6.568,0,0,1,1.057-1.551c5.7-3.923,7.793-10.34,13.746-15.208a14.667,14.667,0,0,0,2.627-3.5c1.08-1.524,2.006-3.153,3.856-3.947,1.589-.683,1.365.306,1.168,1.419m-2.092,44.822c-1.044-4.12.27-9.938,4.678-17.6a17.227,17.227,0,0,1,2.522-3.411c8.361-8.838,16.765-17.556,24-27.388-1.142,4.551-4.1,8.772-7.637,13.491-1.51,2.013-4.181,4.04-6.316,6.325-8.213,8.79-11.258,17.173-8.247,21.119,1.222,1.6,3.675,1.31,7.711-.25-7.715,8.459-15.427,12.776-16.708,7.719m11.24,11.421a105.693,105.693,0,0,0-16.383,21.355c-4.533,7.7-5.792,13.252-5.411,17.717.25,2.919,3.814,2.309,8.618-.732,8.576-5.429,9.92-1.66,5.928,5.49-3.421,6.129-5.248,11.626-5.237,15.929,0,.367-.088.8-.173,1.56-5.989.944-6.372-2.855-1.391-9.862,4-5.631,4.814-9.524,2.041-10.638-.609-.244.338-1.361-.089-1.663-2.849,2.793-5.751,5.613-8.768,8.224-3.849,3.331-6.688,4.488-7.063,2.319-1.992-11.492,3.782-22.79,9.024-32.005a47.418,47.418,0,0,1,7.748-9.541c7.051-7.033,10.705-12.868,12.718-18.672.258-.744.47-1.5.664-2.216a5.435,5.435,0,0,1,2.547-3.115c1.744-.887.767.809.749,1.484-.058,2.048-.342,4.233-.28,6.237.074,2.434-2.361,5.277-5.242,8.129m42.811-77.466c4.665-2.839,6.126-2.155,5.6,2.81a33.062,33.062,0,0,1-5.324,14.487c-5.494,8.507-12.022,17.054-16.328,26.175-4.147,8.786-6.951,17.678-5.154,26.786.839,4.246,3.242,7.616,5.3,10.613a10.6,10.6,0,0,1,1.933,5.161,10.151,10.151,0,0,1-7.9,11.223c-3.1.747-6.475.143-9.863.315-4.891.247-7.506-.619-6.811-4.587a47.12,47.12,0,0,1,4.474,2.183c2.543,1.308,5.02,1.144,8.128-.325,6.9-3.261,9.1-10.731,5.757-16.551-4.2-7.3-3.649-16.073-1.8-24.462.557-2.525,1.028-5.091,1.634-7.585a24.717,24.717,0,0,1,6.549-11.213,25.71,25.71,0,0,0,4.549-6.319c2.391-4.833,5.982-9.754,7.39-14.991,1.22-4.536-.523-7.169-4.6-6.915-1.276.08-2.52,1-4.31,1.163,3.2-4.426,7.26-5.829,10.775-7.968m-35.361,5.016c6.2-6.862,15.521-15.312,25.482-15.222,3.633.033,5.355.827,4.843,4.834a21.954,21.954,0,0,1-5.138,9.688c-1.012,1.174-1.537.879-2.316.09-3.919-3.966-12.755-4.4-19.844,2.045-1.033.938-2.665,2.828-3.205,2.266-.606-.632-1.941-1.356.178-3.7"/></g></g></svg>