<svg xmlns="http://www.w3.org/2000/svg" xmlns:xlink="http://www.w3.org/1999/xlink" width="1040.24" height="806.815" viewBox="0 0 1040.24 806.815"><defs><clipPath id="a"><rect width="1040.24" height="806.815" fill="#050401"/></clipPath><clipPath id="c"><rect width="1040.24" height="806.815" fill="none"/></clipPath></defs><g transform="translate(0 0.002)"><path d="M808.048,552.593l-5.673,17.018H789.327V797.09h-9.473L772.4,569.611H257.22v225.21h-9.077l-9.382-225.21-.261-6.24V552.593Z" transform="translate(-51.525 -119.382)"/><g transform="translate(0 -0.002)"><g clip-path="url(#a)"><path d="M865.615,648.667v2.972H867.1v26.744h-1.486v3.962H867.1v30.707h-2.477v3.962H867.1v52.5h-1.486v3.962H867.1V812.6H720.5V774.466h2.477V770.5H720.5v-52.5h1.486v-3.962H720.5V683.336h2.477v-3.962H720.5V652.629h1.486v-2.971H720.5V631.574a7.175,7.175,0,0,1,7.175-7.175H859.926a7.174,7.174,0,0,1,7.175,7.175v17.093Z" transform="translate(-155.656 -134.893)" fill="#050401"/><path d="M221.827.247v.988A3.01,3.01,0,0,0,221.2.953Z" transform="translate(-47.788 -0.052)" fill="#050401"/><path d="M221.827.247v.988A3.01,3.01,0,0,0,221.2.953Z" transform="translate(-47.788 -0.052)" fill="#050401"/></g></g><g transform="translate(0 -0.002)"><g clip-path="url(#a)"><path d="M843.122,0A51.622,51.622,0,1,0,894.745,51.62,51.616,51.616,0,0,0,843.122,0m0,99.558A47.935,47.935,0,1,1,891.058,51.62a47.934,47.934,0,0,1-47.935,47.935" transform="translate(-170.995 0.002)" fill="#050401"/><path d="M878.5,34.04,862.422,52.133a5.556,5.556,0,0,1,.123,1.2,5.734,5.734,0,1,1-8.6-4.954V14.621a2.877,2.877,0,0,1,2.876-2.864,2.9,2.9,0,0,1,2.864,2.864V46.577L874.209,30.23A2.861,2.861,0,0,1,878.252,30a2.821,2.821,0,0,1,.959,2.139,2.873,2.873,0,0,1-.713,1.905" transform="translate(-183.866 -2.538)" fill="#050401"/><path d="M910.4,63.495h-9.155a1.568,1.568,0,0,0-1.568,1.568v1.78a1.567,1.567,0,0,0,1.568,1.568H910.4a1.567,1.567,0,0,0,1.568-1.568v-1.78a1.568,1.568,0,0,0-1.568-1.568" transform="translate(-194.366 -13.716)" fill="#050401"/><path d="M859.129,118.117v-9.155a1.568,1.568,0,0,0-1.568-1.568h-1.78a1.567,1.567,0,0,0-1.568,1.568v9.155a1.567,1.567,0,0,0,1.568,1.568h1.78a1.568,1.568,0,0,0,1.568-1.568" transform="translate(-184.543 -23.2)" fill="#050401"/><path d="M810.062,63.495h-9.155a1.568,1.568,0,0,0-1.568,1.568v1.78a1.567,1.567,0,0,0,1.568,1.568h9.155a1.567,1.567,0,0,0,1.568-1.568v-1.78a1.567,1.567,0,0,0-1.568-1.568" transform="translate(-172.688 -13.716)" fill="#050401"/><path d="M574.7,842.732h-7.408L548.211,671.691H402.341L383.257,842.732H375.85l17.1-171.041H388.9a2.742,2.742,0,0,1-2.748-2.748v-5.279a2.741,2.741,0,0,1,2.748-2.747h3.743a58.8,58.8,0,0,1,.243-10.775c.539-4.647.875-7.232,2.693-9.427,3.354-4.041,9.509-4.027,12.122-4.041,29.736-.148,24.928-5.36,63.3-2.694,11,.768,14.168,1.388,22.895,1.347,7.731-.04,10.545-.552,25.589-1.347,20.969-1.118,23.8-.565,26.935,1.347,8.5,5.172,11.582,15.664,12.121,17.508a33.5,33.5,0,0,1,1.333,8.081h1.306a2.742,2.742,0,0,1,2.748,2.747v5.279a2.742,2.742,0,0,1-2.748,2.748H557.6Z" transform="translate(-81.198 -136.799)" fill="#050401"/><path d="M420.157,855.931c-.638-2.034-3.166-10.854,1.568-18.815,4.09-6.878,11.186-9.054,14.9-10.191,10.079-3.091,19.526-1.015,38.414,3.136,5.806,1.276,10.33,2.514,17.247,2.352,5.853-.137,9.794-1.192,14.9-2.352,19.824-4.507,21.44-5.884,26.655-4.7,1.85.419,10.561,2.644,14.9,10.975,4.725,9.084.576,18.365,0,19.6Z" transform="translate(-90.501 -178.221)" fill="#050401"/><path d="M857.718,587.432H852.33v-1.787a2.349,2.349,0,0,0-2.35-2.35H829.85a2.349,2.349,0,0,0-2.35,2.35v24.366a5.563,5.563,0,0,0,5.561,5.561h13.706a5.563,5.563,0,0,0,5.562-5.561v-3.543h5.388a3.493,3.493,0,0,0,3.493-3.493v-12.05a3.494,3.494,0,0,0-3.493-3.493m.182,15.544a.183.183,0,0,1-.182.182H852.33V590.742h5.388a.184.184,0,0,1,.182.183Z" transform="translate(-178.772 -126.013)" fill="#050401"/><path d="M888.078,591.563h-.251l.306-2.454a2.356,2.356,0,0,0-2.336-2.642H865.241a2.356,2.356,0,0,0-2.336,2.642l2.8,22.719a5.033,5.033,0,0,0,5,4.429h9.627a5.033,5.033,0,0,0,5-4.429l.517-4.194h1.019a8.645,8.645,0,0,0,8.639-8.639,7.438,7.438,0,0,0-7.432-7.432M886.871,604.5h-.635l1.207-9.8h.635a4.3,4.3,0,0,1,4.3,4.3,5.51,5.51,0,0,1-5.5,5.5" transform="translate(-186.417 -126.698)" fill="#050401"/><path d="M802.741,502.467H782.616a2.641,2.641,0,0,0-2.352,2.861v2.179h-3.826c-1.929,0-3.489,1.905-3.489,4.257v14.684c0,2.352,1.56,4.257,3.489,4.257h3.826v4.312c0,3.747,2.493,6.781,5.558,6.781h13.7c3.073,0,5.566-3.034,5.566-6.781V505.328a2.641,2.641,0,0,0-2.352-2.861m-22.476,24.2h-3.826a.209.209,0,0,1-.18-.219V511.765a.209.209,0,0,1,.18-.22h3.826Z" transform="translate(-166.987 -108.551)" fill="#050401"/><path d="M443.273,367.171H375.852a2.352,2.352,0,1,1,0-4.7h67.421a2.352,2.352,0,1,1,0,4.7" transform="translate(-80.691 -78.305)" fill="#050401"/><path d="M519.039,391.307H410.852a2.352,2.352,0,0,1-2.352-2.352v-3.136a2.352,2.352,0,0,1,2.352-2.352H519.039a2.352,2.352,0,0,1,2.352,2.352v3.136a2.352,2.352,0,0,1-2.352,2.352" transform="translate(-88.252 -82.842)" fill="#050401"/><path d="M538.076,408.171H382.852a2.352,2.352,0,1,1,0-4.7H538.076a2.352,2.352,0,1,1,0,4.7" transform="translate(-82.203 -87.163)" fill="#050401"/><path d="M536.132,420.171H373.852a2.352,2.352,0,0,1,0-4.7h162.28a2.352,2.352,0,0,1,0,4.7" transform="translate(-80.258 -89.756)" fill="#050401"/><path d="M536.132,432.171H373.852a2.352,2.352,0,0,1,0-4.7h162.28a2.352,2.352,0,0,1,0,4.7" transform="translate(-80.258 -92.348)" fill="#050401"/><path d="M538.076,453.171H382.852a2.352,2.352,0,1,1,0-4.7H538.076a2.352,2.352,0,1,1,0,4.7" transform="translate(-82.203 -96.885)" fill="#050401"/><path d="M536.132,466.171H373.852a2.352,2.352,0,0,1,0-4.7h162.28a2.352,2.352,0,0,1,0,4.7" transform="translate(-80.258 -99.693)" fill="#050401"/><path d="M536.132,479.171H373.852a2.352,2.352,0,0,1,0-4.7h162.28a2.352,2.352,0,0,1,0,4.7" transform="translate(-80.258 -102.502)" fill="#050401"/><path d="M782.953,596.467H771.163a1.318,1.318,0,0,0-1.378,1.254v.955h-2.241a1.96,1.96,0,0,0-2.044,1.865v6.434a1.96,1.96,0,0,0,2.044,1.866h2.241v1.889a3.125,3.125,0,0,0,3.257,2.971h8.028a3.126,3.126,0,0,0,3.26-2.971V597.721a1.318,1.318,0,0,0-1.377-1.254m-13.167,10.6h-2.241a.1.1,0,0,1-.106-.1v-6.434a.1.1,0,0,1,.106-.1h2.241Z" transform="translate(-165.378 -128.859)" fill="#050401"/><rect width="64.285" height="5.488" transform="translate(575.819 484.856)" fill="#050401"/><path d="M900.729,495.527v22.248c0,7.912-5.545,14.335-12.375,14.335h-32.48c-6.83,0-12.375-6.423-12.375-14.335V495.527c0-3.206,2.242-5.8,5.01-5.8h2.5v-7.075l-4.034-2.956a1.794,1.794,0,0,1-.441-2.25,1.3,1.3,0,0,1,1.943-.511l2.533,1.859v-7.075l-2.974-1.729a1.757,1.757,0,0,1-.629-2.184,1.323,1.323,0,0,1,1.886-.728l1.717,1v-6.716c0-4.141,2.9-7.5,6.473-7.5h3a5.816,5.816,0,0,1,3.659,1.315v-2.5a1.25,1.25,0,0,1-.385-.239l-4.3-3.8a1.792,1.792,0,0,1-.263-2.282,1.275,1.275,0,0,1,1.97-.3l2.974,2.63v-5.619c0-3.641,2.542-6.586,5.685-6.586H874.4c3.143,0,5.685,2.945,5.685,6.586v1.381l3.124-1.815a1.323,1.323,0,0,1,1.886.728,1.757,1.757,0,0,1-.629,2.184l-4.382,2.543v7.358l3.5-2.434a1.313,1.313,0,0,1,1.932.564,1.8,1.8,0,0,1-.488,2.239l-4.691,3.26a1.143,1.143,0,0,1-.253.131v6.315l2.984-2.272a1.28,1.28,0,0,1,1.942.467,1.768,1.768,0,0,1-.4,2.25l-4.522,3.445v1.891a5.49,5.49,0,0,1,3.312-1.13h3.7c3.152,0,5.742,2.75,6.088,6.293l3.5-2.586a1.3,1.3,0,0,1,1.942.5,1.787,1.787,0,0,1-.422,2.249l-4.982,3.685v6.25l3.594-2.087a1.322,1.322,0,0,1,1.885.728,1.755,1.755,0,0,1-.629,2.184l-4.053,2.348h-.8v.467l.8-.467h1.7c2.768,0,5.01,2.6,5.01,5.8" transform="translate(-182.229 -94.292)" fill="#050401"/><path d="M515.166,221.467l-.666.337v-.337Z" transform="translate(-111.152 -47.844)" fill="#050401"/><path d="M515.166,221.467l-.666.337v-.337Z" transform="translate(-111.152 -47.844)" fill="#050401"/></g></g><g transform="translate(0 -0.002)"><g clip-path="url(#c)"><path d="M556.04,343.467H357.494a4.992,4.992,0,0,0-4.994,4.994v122.11a4.992,4.992,0,0,0,4.994,4.994h86.832a4.992,4.992,0,0,1,4.994,4.994v24.4H423.347a1.857,1.857,0,0,0-1.858,1.858v2.846h79.18v-2.846a1.857,1.857,0,0,0-1.858-1.858H469.7v-24.4a4.992,4.992,0,0,1,4.994-4.994H556.04a4.992,4.992,0,0,0,4.994-4.994V348.461a4.992,4.992,0,0,0-4.994-4.994m-1.67,109.856a4.992,4.992,0,0,1-4.994,4.994h-186a4.992,4.992,0,0,1-4.994-4.994V356.692a4.992,4.992,0,0,1,4.994-4.994h186a4.992,4.992,0,0,1,4.994,4.994Z" transform="translate(-76.154 -74.201)"/><path d="M703.448,216.495v-3.528h-4.97v3.528H684.5v44.686h32.926V216.495Zm12.425,29.4h-29.2V219.239h29.2Z" transform="translate(-147.879 -46.008)"/><path d="M780.473,250.751v-3.528H775.5v3.528H761.525v44.686h32.926V250.751Zm12.425,29.4H763.7V253.495h29.2Z" transform="translate(-164.519 -53.408)"/><path d="M1104.245,538.04h-4.018a336.846,336.846,0,0,0-13.893-36.162v-.016l-.015-.015c-1.038-56.654-1.957-103.459-2.8-139.137a113.016,113.016,0,0,0,18.563-27.281c2.12-4.354,6.316-13.8,9.326-30.605a70.5,70.5,0,0,1-12.766,4.167c-2.313.437-4.151.469-4.745-.531a2.942,2.942,0,0,1,.252-2.5c.7-.39,1.379-.78,2.075-1.17q6.428-3.629,13.152-7.21c1.156-.609,2.283-1.217,3.425-1.811.415-3.137.756-6.461,1.067-10.02a229.977,229.977,0,0,0,.742-26.766.4.4,0,0,0-.637-.328,71.751,71.751,0,0,1-11.254,7.8c-2.1,1.093-3.855,1.67-4.685.874a2.9,2.9,0,0,1-.43-2.466c.579-.578,1.142-1.156,1.69-1.748q5.227-5.314,10.75-10.754c.993-.983,2-1.966,2.995-2.918a2.931,2.931,0,0,0,.875-2.342c-.163-2.013-.341-4.011-.549-6.008a.48.48,0,0,0-.786-.328,41.735,41.735,0,0,1-3.855,2.934c-2.076,1.389-3.84,2.2-4.819,1.468-.7-.5-.771-1.67-.727-2.528.519-.671,1.038-1.326,1.557-2q2.936-3.792,5.99-7.6a5.513,5.513,0,0,0,1.171-4.214c-.993-7.257-2.179-14.655-3.455-22.458a.409.409,0,0,0-.726-.219,65.969,65.969,0,0,1-5.323,5.806c-1.75,1.638-3.232,2.684-4.033,2.138-.564-.405-.608-1.5-.564-2.31.445-.734.9-1.452,1.349-2.169q3.4-5.5,7.013-11.113a3.614,3.614,0,0,0,.5-2.622c-.356-2-.727-3.933-1.1-5.79a.753.753,0,0,0-1.319-.375c-1.127,1.265-2.253,2.435-3.306,3.434-1.75,1.638-3.247,2.684-4.047,2.138-.564-.39-.594-1.482-.549-2.31.43-.718.875-1.452,1.334-2.154q2.513-4.073,5.115-8.162a4.206,4.206,0,0,0,.563-3.153c-2.757-12.5-5.382-22.146-7.146-30.948,0,0-.416-2.092-1.512-5.65-1.765-5.775-2.654-8.646-4.418-9.317-2.847-1.077-7,3.824-8.852,6.211a57.712,57.712,0,0,0-8.481,15.873q1.335,5.946,2.58,12.064c.919,4.541,1.764,8.99,2.564,13.407.134.7.252,1.4.386,2.122-.3.655-.786,1.467-1.483,1.561-.964.125-1.957-1.217-2.951-3.106a76.14,76.14,0,0,1-4.73-12.844c-.371,1.733-.7,3.48-.993,5.2a15.725,15.725,0,0,0,.074,5.946c.193.921.37,1.857.563,2.778q1.379,6.812,2.565,13.407c.133.718.267,1.4.386,2.122-.281.655-.771,1.467-1.468,1.561-.979.125-1.958-1.2-2.951-3.106-.652-1.264-1.557-3.418-1.883-4.276-1.512,10.877-2.476,18.041-2.995,23.55a16.789,16.789,0,0,0,1.275,8.272l.371.843c1.943,4.058,3.855,8.037,5.679,12,.3.64.593,1.279.889,1.9,0,.687-.074,1.56-.519,1.81-.608.343-1.675-.671-2.891-2.232a80.49,80.49,0,0,1-5.263-8.007.192.192,0,0,0-.356.11c-.149,4.885-.178,9.6-.119,14.109a6.867,6.867,0,0,0,1.32,3.964c.281.406.578.8.859,1.2.4.562.816,1.124,1.231,1.686.119.671.193,1.545-.193,1.889-.474.406-1.512-.187-2.787-1.249a.151.151,0,0,0-.238.141c.519,15.279,2.016,28.264,3.337,39.454a539.473,539.473,0,0,0,10.7,60.9c.83,33.54,1.72,78.347,2.758,133.16-1.409-2.747-2.876-5.463-4.374-8.163-3.529-6.367-7.147-12.408-10.928-18.2-1.453-18.276-4.3-43.574-10.734-86.026-1.171-7.757-2.284-15.076-3.337-22.006.994-1.608,2.179-3.668,3.366-6.1,8.807-18.073,8.851-37.488,4.418-60.556a451.512,451.512,0,0,0-12.735-50c-1.824,1.7-3.974,3.168-5.383,2.435-.459-.234-1.631-1.109-1.482-7.8a57.288,57.288,0,0,1,1.364-11.222v-.016c-.756-2.169-1.512-4.245-2.254-6.258-2.09,1.155-4.611,2.169-5.782,1.108-.949-.858-.652-2.715,0-6.243.371-1.935.8-4.151,1.32-6.633-4.4-11.221-7.488-17.838-7.488-17.838-27.073-48.491-48.468-82.92-53.835-89.273-.727-.858-4.182-4.76-8.852-9.3s-6.361-5.634-7.369-6.211c-3.173-1.857-7.325-4.277-11.8-3.106-7.68,2-10.126,12.97-10.334,13.969a23.367,23.367,0,0,0,0,9.317c.089.437.178.874.281,1.311a94.332,94.332,0,0,0,10.6,6.321c3.054,1.545,7.487,3.574,8.9,7.8.208.624.7,2.185,0,3.121-1.008,1.358-3.914.578-5.931,0-2.595-.733-6.019-1.732-10.186-3.121.845,3.137,1.72,6.149,2.625,9.005v.015a14.927,14.927,0,0,1,6.079,1.9c1.527.874,4.848,3.137,4.448,4.683-.267.967-2.016,1.794-7.844,1.67a198.672,198.672,0,0,0,10.216,24.737c.074.14.148.3.222.437a45.344,45.344,0,0,1,6.3,1.249c4.819,1.311,4.522,2.076,8.9,3.121,5.234,1.249,7.9.672,11.861,3.122.845.531,3.217,1.982,2.965,3.122-.3,1.342-4.077,1.482-5.931,1.56-4.166.187-9.934.531-17.688,1.265,1.749,3.933,3.647,8.35,5.811,13.484,1.482.328,2.966.609,4.463.858,3.44.546,6.45.8,13.344,1.561,5.96.655,7.28.874,7.413,1.561.267,1.4-4.537,3.636-7.413,4.682a34.054,34.054,0,0,1-13.388,1.967c2.016,4.885,4.24,10.285,6.731,16.34,3.692,8.974,7.384,17.948,11.106,27.422a34.884,34.884,0,0,1,4.448,1.092,35.7,35.7,0,0,1,13.344,7.8H989.769c.964,2.513,1.912,5.057,2.876,7.663a22.387,22.387,0,0,1,5.545,3.262,23.857,23.857,0,0,1,4.448,4.682c-2.239.328-4.493.671-6.732,1.014,2.417,6.773,4.864,13.922,7.339,21.585,1.008,3.137,1.957,6.1,2.861,8.958,5.249.593,9.815,1.467,9.875,2.778.074,1.4-5.056,3.356-7.547,4.229,3.44,10.035,7.176,18.916,14,29.061a122.037,122.037,0,0,0,19.364,22.412q1.645,10.909,3.514,23.223c5,32.9,7.814,55.421,9.489,72.323a318.9,318.9,0,0,0-21.009-25.892l.43-.469s-.237-4.791-.9-11.065a123.924,123.924,0,0,0-3.515-19.977c-3.054-10.488-8.792-17.823-15.849-24.956a96.059,96.059,0,0,0,1.1-21.631c-.83-13.235-4.269-23.52-14.753-46.572-8.955-19.711-17.688-38.768-33.923-66.751-19.319-33.336-19.038-27.171-30.973-49.693-.7-1.3-1.423-2.575-2.165-3.839-3.647,6.367-6.227,9.3-7.695,8.787-.89-.312-1.379-1.873-1.483-4.682.416-5.275.83-10.535,1.246-15.81-1.379-1.9-2.773-3.808-4.152-5.712a31.526,31.526,0,0,1-5.989,7.476V150.173c-1.186-1.857-2.313-3.761-3.351-5.712-.846-1.561-3.959-7.476-10.334-10.863-1.617-.858-7.369-3.917-11.788-1.561-1.216.655-5.293,3.278-5.9,15.529-.963,19.04,7.709,35.584,13.27,46.587,6.019,11.893,11.535,24.035,17.006,36.224H928.5a17.657,17.657,0,0,1-4.448,4.683,16.953,16.953,0,0,1-6.6,2.856q3.025,6.742,6.109,13.468c1.083.234,2.239.515,3.455.843a48.291,48.291,0,0,1,14.826,6.243,44.364,44.364,0,0,1,5.931,4.683q-9.1.678-18.192,1.374c2.431,5.353,4.211,9.379,5.648,12.673a71.765,71.765,0,0,0,12.543-1.561c2.091-.452,4.077-.983,5.931-1.561q-7.606,5.338-15.2,10.66c1.617,3.668,3.039,6.789,5.367,11.393.564,1.093,1.171,2.295,1.853,3.59.445.858,1.9,3.621,4.167,7.695,1.646,2.965,3.736,6.632,6.212,10.768-.281.905-.607,1.81-.919,2.716-.742,2.107-1.646,4.62-2.966,4.682-1.735.078-3.188-4.088-4.448-7.8-2.12-6.211-3.885-11.44-5.515-16.231-1.75-1.326-3.529-2.637-5.338-3.964a25.459,25.459,0,0,1-1.008,6.149c-.311,1.249-.786,3.09-1.482,3.122-1.053.031-1.69-4.042-2.965-7.8a34.574,34.574,0,0,0-4.211-8.35l-.014-.016c-3.069-2.154-6.243-4.307-9.534-6.492-4.062-2.7-7.325-4.792-9.978-6.414-.119,7.1-.771,9.614-1.468,10.347l-.193.2-1.29,1.358a32.822,32.822,0,0,0-1.482-9.364,32.181,32.181,0,0,0-3.1-6.914c-6.094-3.215-6.538-2.372-16.413-9.395-7.621-5.4-15.153-11.44-26.554-12.423-4.152-.359-10.29-.89-14.753,3.106-8.185,7.319-4.077,23.956-2.951,27.952,3.5,12.361,11.209,19.852,16.235,24.83,14.53,14.405,20.194,21.491,24.612,27.156a49.824,49.824,0,0,1,18.474-9.052c-3.914,5.79-7.858,11.565-11.773,17.355a170.342,170.342,0,0,0,14.4,14.234c4.7,4.229,9.162,8.054,13.477,11.581a42.653,42.653,0,0,1,9.1-10.395c4.8-3.933,11.891-7.881,13.345-6.243.533.593.474,2.107,0,3.122a3.609,3.609,0,0,1-1.483,1.56c-2.387,1.468-7.324,8.21-8.9,15.607a25.083,25.083,0,0,0-.564,5.322c6.509,4.885,12.736,9.208,18.919,13.437a41.189,41.189,0,0,1,3.885-4.713c5.219-5.478,13.2-10.924,14.826-9.364,1.083,1.029-.178,5.54-9.741,20.18,13.121,8.74,20.757,12.844,26.777,15.794,13.848,6.773,24.656,10.1,34.13,11.534,2.284,10.582,4.4,21.007,6.494,31.214,5.53,26.985,10.126,54.546,13.744,82.265-8.526.546-15.286,7.991-15.286,17.105V695.7c0,16.683,12.854,30.2,28.69,30.2h42.924c15.849,0,28.689-13.516,28.689-30.2V555.176c0-9.473-7.28-17.137-16.265-17.137m-61.293,0c-3.648-28.264-8.318-56.357-13.952-83.888-1.928-9.427-3.884-19.01-5.975-28.764-.43-2-.86-4.012-1.3-6.025,1.943,2.06,3.841,4.1,5.664,6.149h.015a307.619,307.619,0,0,1,28.749,36.863c.4,5.369.7,10.13.92,14.546,1.067,20.3,1.363,40.765.859,61.117Zm22.388,0c.5-20.476.207-41.109-.86-61.539-.015-.265-.03-.515-.045-.78,1.171,1.982,2.313,4.011,3.455,6.055q5.96,10.769,11.09,22.037v.031q.312,16.551.623,34.195Zm21.647,0c-.1-5.4-.193-10.707-.3-15.95q3.047,7.889,5.693,15.95Z" transform="translate(-180.933 -16.049)"/><path d="M740.536,326.675v-3.528h-4.969v3.528H721.589v44.686h32.926V326.675Zm12.425,29.4h-29.2V329.419h29.2Z" transform="translate(-155.891 -69.811)"/><path d="M166.53,729.816C13.684,752.911,3.749,771.547,1.938,779.99c-7.329,34.163,78.5,87.207,163.73,107.4,108.56,25.723,144.723-18.768,273.171-13.327,125.5,5.316,123.413,49.161,281.789,72.908,107.656,16.142,288.71,22.885,315.4-38.414,11.9-27.325-10.825-59.117-20.682-72.908-34.137-47.766-92.647-67.791-236.117-92.507-131.6-22.671-197.4-34.007-299.885-36.846C346.531,702.618,257.375,716.09,166.53,729.816Z" transform="translate(-0.324 -152.453)" fill="none" stroke="#050401" stroke-miterlimit="10" stroke-width="3"/><path d="M183.93,783.014a1.567,1.567,0,0,0-.423-.635,2.931,2.931,0,0,0,.361-2.462c-.18-.47-.651-.823-1.576-1.521a3.124,3.124,0,0,0-1.834-.8,2.063,2.063,0,0,0-.321.023c-.557.078-1.756.173-4.359.29a.393.393,0,0,1-.408-.431,31.205,31.205,0,0,1,.525-3.081,4.342,4.342,0,0,0,.165-1.4,3.816,3.816,0,0,0-1-2.281c-.282-.3-.525-.415-2.556-1.05a12.638,12.638,0,0,0-3.912-.87,3.454,3.454,0,0,0-1.356.18,3.543,3.543,0,0,0-1.976,2.564.4.4,0,0,1-.517.321l-6.4-1.929a.362.362,0,0,1-.259-.408,9.078,9.078,0,0,0,.11-1.09,5.353,5.353,0,0,0-.361-2.713,4.385,4.385,0,0,0-2.3-1.772,9.157,9.157,0,0,0-3.567-.917,5.328,5.328,0,0,0-2.72.361,4.755,4.755,0,0,0-1.858,1.623,7.048,7.048,0,0,0-1.051,2.556,11.066,11.066,0,0,0-.3,1.693,30.061,30.061,0,0,1-1.38,5.488,55.121,55.121,0,0,1-2.94,7.589l-.22.439a1.4,1.4,0,0,1-1.066.768c-3.661.5-6.664.886-8.773,1.145-3.622.447-7.22,1.145-10.866,1.427a33.559,33.559,0,0,0-6.742,1.231c-.306.1-.784.29-1.654.557a7.963,7.963,0,0,0-1.654.564,3.053,3.053,0,0,0-1.372,1.388,3,3,0,0,0-.071,2.085,3.3,3.3,0,0,0,.47.972,2.065,2.065,0,0,0-.439.572c-.031.063-.055.118-.078.172a1.308,1.308,0,0,0,.172,1.16.819.819,0,0,1,.125.368c.031.2.063.478.118.9a.65.65,0,0,0,.517.549c.463.094,1.027.2,1.67.321,0,0,1.246.212,2.469.368a38.442,38.442,0,0,0,10.27-.659c1.082-.227,5.362-.76,13.923-1.827,6.036-.753,6.546-.651,13.955-1.505-.016.282-.016.549-.008.807a1.623,1.623,0,0,0,1.772,1.364h27.948a1.626,1.626,0,0,0,1.78-1.38,16.68,16.68,0,0,0-1.231-6.327c-.071-.172-.141-.345-.22-.517.18-.11.368-.235.557-.361.8-.549.87-1.019.878-1.152a.631.631,0,0,0,.008-.125,4.116,4.116,0,0,0-.141-.894,2.967,2.967,0,0,0,.118-1.74m-8.059,8.177h-7.746c2.681-.533,5.339-1.223,8.043-1.623a1.814,1.814,0,0,1,.674,1.333c0,.165-.439.29-.972.29" transform="translate(-23.579 -164.838)"/><path d="M544.8,559.146H385.184a3.684,3.684,0,0,1-3.684-3.684v-8.312a3.684,3.684,0,0,1,3.684-3.684H544.8a3.684,3.684,0,0,1,3.684,3.684v8.312a3.684,3.684,0,0,1-3.684,3.684" transform="translate(-82.419 -117.409)"/><path d="M618.555,552.362c-.749-8.584,6.307-14.7,11.913-14.891,5.784-.2,14.123,5.76,13.9,14.891Z" transform="translate(-133.62 -116.112)"/><path d="M740.649,554.307H679.5v-5.771a2.069,2.069,0,0,1,2.069-2.069H738.58a2.069,2.069,0,0,1,2.069,2.069Z" transform="translate(-146.798 -118.057)"/><path d="M644.8,564.467c-2.205,2.646-22.782,26.37-65.069,30.093-33.484,2.948-67.245-7.818-86.236-27.5" transform="translate(-106.615 -121.945)" fill="none" stroke="#000" stroke-miterlimit="10" stroke-width="1"/><path d="M652.385,566.121c-5.707,3.461-34.7,20.323-78.4,19.2-37.612-.97-62.23-14.651-68.989-18.679" transform="translate(-109.1 -122.303)" fill="none" stroke="#000" stroke-miterlimit="10" stroke-width="1"/><path d="M664.113,567.159c-21.873,18.212-55.831,27.141-87.8,22.829-31.587-4.26-49.022-19.8-53.309-23.867" transform="translate(-112.988 -122.303)" fill="none" stroke="#000" stroke-miterlimit="10" stroke-width="1"/><path d="M677.985,566.089c-1.4,1.519-13.563,14.31-30.875,11.267-14.272-2.508-22.079-14.027-23.611-16.389" transform="translate(-134.7 -121.189)" fill="none" stroke="#000" stroke-miterlimit="10" stroke-width="1"/></g></g></g></svg>