<svg xmlns="http://www.w3.org/2000/svg" width="43.094" height="35" viewBox="0 0 43.094 35"><defs><style>.a{fill:#050401;}</style></defs><path class="a" d="M38.664,12.1c.027.383.027.766.027,1.148,0,11.676-8.887,25.129-25.129,25.129A24.958,24.958,0,0,1,0,34.416a18.271,18.271,0,0,0,2.133.109A17.688,17.688,0,0,0,13.1,30.752,8.848,8.848,0,0,1,4.84,24.627a11.138,11.138,0,0,0,1.668.137,9.341,9.341,0,0,0,2.324-.3A8.833,8.833,0,0,1,1.75,15.795v-.109a8.9,8.9,0,0,0,3.992,1.121A8.845,8.845,0,0,1,3.008,4.994a25.1,25.1,0,0,0,18.211,9.242A9.97,9.97,0,0,1,21,12.213,8.84,8.84,0,0,1,36.285,6.17a17.389,17.389,0,0,0,5.605-2.133A8.808,8.808,0,0,1,38.008,8.9a17.706,17.706,0,0,0,5.086-1.367,18.985,18.985,0,0,1-4.43,4.566Z" transform="translate(0 -3.381)"/></svg>