<svg xmlns="http://www.w3.org/2000/svg" width="50.08" height="35" viewBox="0 0 50.08 35"><defs><style>.a{fill:#050401;}</style></defs><path class="a" d="M49.041,10.828A6.277,6.277,0,0,0,44.683,6.47c-3.9-1.046-19.614-1.046-19.614-1.046S9.4,5.4,5.456,6.47A6.277,6.277,0,0,0,1.1,10.828,65.226,65.226,0,0,0,.008,22.946,65.226,65.226,0,0,0,1.1,35.018a6.277,6.277,0,0,0,4.359,4.359c3.9,1.048,19.614,1.048,19.614,1.048s15.668,0,19.614-1.048a6.277,6.277,0,0,0,4.359-4.359,65.226,65.226,0,0,0,1.044-12.072,65.225,65.225,0,0,0-1.044-12.118ZM20.055,30.442V15.427l13.076,7.519Z" transform="translate(-0.007 -5.424)"/></svg>