<?xml version="1.0" encoding="UTF-8" standalone="no"?>
<!DOCTYPE svg PUBLIC "-//W3C//DTD SVG 1.1//EN" "http://www.w3.org/Graphics/SVG/1.1/DTD/svg11.dtd">
<svg width="100%" height="100%" viewBox="0 0 143 143" version="1.1" xmlns="http://www.w3.org/2000/svg" xmlns:xlink="http://www.w3.org/1999/xlink" xml:space="preserve" xmlns:serif="http://www.serif.com/" style="fill-rule:evenodd;clip-rule:evenodd;stroke-linecap:round;stroke-linejoin:round;stroke-miterlimit:1.5;">
    <g transform="matrix(1,0,0,1,-916.635,-492.356)">
        <g transform="matrix(1.01336,0,0,1,-12.249,0)">
            <g>
                <g transform="matrix(0.393336,5.36215e-19,5.35219e-19,0.389689,678.953,365.121)">
                    <path d="M783.544,327.789L783.544,441.789L694.544,507.789L694.544,393.789L783.544,327.789Z" style="fill:rgb(35,38,52);stroke:rgb(35,38,52);stroke-width:2.54px;"/>
                </g>
                <g transform="matrix(-0.393336,-5.36215e-19,5.35219e-19,0.389689,1225.33,365.121)">
                    <path d="M783.544,327.789L783.544,441.789L694.544,507.789L694.544,393.789L783.544,327.789Z" style="fill:rgb(41,44,60);stroke:rgb(41,44,60);stroke-width:2.54px;"/>
                </g>
                <g transform="matrix(0.393327,0,0,0.394059,643.773,292.863)">
                    <path d="M784.001,572.789L695.098,507.593L695.198,507.52L873.003,507.52L784.001,572.789Z" style="fill:rgb(48,52,70);stroke:rgb(48,52,70);stroke-width:2.52px;"/>
                </g>
            </g>
            <g transform="matrix(1,0,0,1,70.0138,0)">
                <g transform="matrix(0.393336,5.36215e-19,5.35219e-19,0.389689,678.953,365.121)">
                    <path d="M783.544,327.789L783.544,441.789L694.544,507.789L694.544,393.789L783.544,327.789Z" style="fill:rgb(35,38,52);stroke:rgb(35,38,52);stroke-width:2.54px;"/>
                </g>
                <g transform="matrix(-0.393336,-5.36215e-19,5.35219e-19,0.389689,1225.33,365.121)">
                    <path d="M783.544,327.789L783.544,441.789L694.544,507.789L694.544,393.789L783.544,327.789Z" style="fill:rgb(41,44,60);stroke:rgb(41,44,60);stroke-width:2.54px;"/>
                </g>
                <g transform="matrix(0.393327,0,0,0.394059,643.773,292.863)">
                    <path d="M695.098,507.593L695.198,507.52L873.003,507.52L784.001,572.789L695.098,507.593Z" style="fill:rgb(48,52,70);stroke:rgb(48,52,70);stroke-width:2.52px;"/>
                </g>
            </g>
            <g transform="matrix(0.393327,0,0,0.394059,643.773,434.863)">
                <path d="M695.234,507.494L784.272,442.2L873.174,507.394L873.039,507.494L695.234,507.494ZM784.544,506.789L784,506.789L784,507L784.544,507L784.544,506.789Z" style="fill:rgb(48,52,70);stroke:rgb(48,52,70);stroke-width:2.52px;"/>
            </g>
            <g transform="matrix(0.393327,0,0,0.394059,713.787,434.863)">
                <path d="M695.234,507.494L784.272,442.2L873.174,507.394L873.039,507.494L695.234,507.494ZM784.544,506.789L784,506.789L784,507L784.544,507L784.544,506.789Z" style="fill:rgb(48,52,70);stroke:rgb(48,52,70);stroke-width:2.52px;"/>
            </g>
            <g transform="matrix(1,0,0,1,-35.0069,70.8843)">
                <g transform="matrix(0.393336,5.36215e-19,5.35219e-19,0.389689,678.953,365.121)">
                    <path d="M783.544,327.789L783.544,441.789L694.544,507.789L694.544,393.789L783.544,327.789Z" style="fill:rgb(35,38,52);stroke:rgb(35,38,52);stroke-width:2.54px;"/>
                </g>
                <g transform="matrix(0.393327,0,0,0.394059,643.773,292.863)">
                    <path d="M784.001,442.398L784.272,442.2L873.174,507.394L873.003,507.52L784.001,572.789L784.001,507L784.544,507L784.544,506.789L784.001,506.789L784.001,442.398Z" style="fill:rgb(48,52,70);stroke:rgb(48,52,70);stroke-width:2.52px;"/>
                </g>
            </g>
            <g transform="matrix(1,0,0,1,35.0069,70.8843)">
                <g transform="matrix(0.393336,5.36215e-19,5.35219e-19,0.389689,678.953,365.121)">
                    <path d="M783.544,327.789L783.544,441.789L694.544,507.789L694.544,393.789L783.544,327.789Z" style="fill:rgb(35,38,52);stroke:rgb(35,38,52);stroke-width:2.54px;"/>
                </g>
                <g transform="matrix(-0.393336,-5.36215e-19,5.35219e-19,0.389689,1225.33,365.121)">
                    <path d="M783.544,327.789L783.544,441.789L694.544,507.789L694.544,393.789L783.544,327.789Z" style="fill:rgb(41,44,60);stroke:rgb(41,44,60);stroke-width:2.54px;"/>
                </g>
                <g transform="matrix(0.393327,0,0,0.394059,643.773,292.863)">
                    <path d="M784,572.789L695.098,507.594L784.272,442.2L873.174,507.394L784,572.789ZM784.544,506.789L784,506.789L784,507L784.544,507L784.544,506.789Z" style="fill:rgb(48,52,70);stroke:rgb(48,52,70);stroke-width:2.52px;"/>
                </g>
            </g>
            <g transform="matrix(1,0,0,1,105.088,70.8843)">
                <g transform="matrix(0.393336,5.36215e-19,5.35219e-19,0.389689,678.953,365.121)">
                    <path d="M694.63,507.725L694.544,507.789L694.543,393.789L694.63,393.725L694.63,507.725Z" style="fill:rgb(35,38,52);stroke:rgb(35,38,52);stroke-width:2.54px;"/>
                </g>
                <g transform="matrix(-0.393336,-5.36215e-19,5.35219e-19,0.389689,1225.33,365.121)">
                    <path d="M783.544,327.789L783.544,441.789L694.544,507.789L694.544,393.789L783.544,327.789Z" style="fill:rgb(41,44,60);stroke:rgb(41,44,60);stroke-width:2.54px;"/>
                </g>
                <g transform="matrix(0.393327,0,0,0.394059,643.773,292.863)">
                    <path d="M695.098,507.593L784.087,442.335L784.087,506.789L784,506.789L784,507L784.087,507L784.087,572.725L784.001,572.789L695.098,507.593Z" style="fill:rgb(48,52,70);stroke:rgb(48,52,70);stroke-width:2.52px;"/>
                </g>
            </g>
        </g>
    </g>
</svg>
